<svg xmlns="http://www.w3.org/2000/svg" style="display:none;">
  <symbol id="search-magnifier" viewBox="0 0 470.007 470.007">
    <title>Search icon</title>
    <g>
    	<g>
    		<path d="M471.882,407.567L360.567,296.243c-16.586,25.795-38.536,47.734-64.331,64.321l111.324,111.324
    			c17.772,17.768,46.587,17.768,64.321,0C489.654,454.149,489.654,425.334,471.882,407.567z"/>
    		<path d="M363.909,181.955C363.909,81.473,282.44,0,181.956,0C81.474,0,0.001,81.473,0.001,181.955s81.473,181.951,181.955,181.951
    			C282.44,363.906,363.909,282.437,363.909,181.955z M181.956,318.416c-75.252,0-136.465-61.208-136.465-136.46
    			c0-75.252,61.213-136.465,136.465-136.465c75.25,0,136.468,61.213,136.468,136.465
    			C318.424,257.208,257.206,318.416,181.956,318.416z"/>
    		<path d="M75.817,181.955h30.322c0-41.803,34.014-75.814,75.816-75.814V75.816C123.438,75.816,75.817,123.437,75.817,181.955z"/>
    	</g>
    </g>
  </symbol>

  <symbol id="company-image-placeholder" viewBox="0 0 470.007 470.007">
    <title>Company image placeholder</title>
    <path style="fill:#757982;" d="M498.071,233.517H347.815c-9.017-1.558-15.248-10.128-13.69-19.255l7.902-47.303l16.695-100.171
    	l8.793-52.868c1.336-8.014,8.348-13.913,16.473-13.913h77.91c8.125,0,15.137,5.899,16.473,13.913l8.793,52.868l16.695,100.171
    	l7.902,47.303C513.319,223.389,507.087,231.959,498.071,233.517z"/>
    <g>
    	<polygon style="fill:#B8BFCC;" points="503.858,166.959 342.027,166.959 347.592,133.569 498.293,133.569 	"/>
    	<polygon style="fill:#B8BFCC;" points="492.728,100.179 353.157,100.179 358.722,66.789 487.163,66.789 	"/>
    </g>
    <path style="fill:#A1A7B3;" d="M495.288,200.35H324.108l-68.116-68.116l-27.156-27.156c-10.463-10.462-28.494-3.005-28.494,11.798
    	v59.88l-71.677-71.678c-10.463-10.462-28.494-3.116-28.494,11.798v59.88l-71.677-71.678C18.031,94.614,0,102.071,0,116.874V311.65
    	h255.992h255.992v-94.606C511.983,207.807,504.527,200.35,495.288,200.35z"/>
    <path style="fill:#979CA7;" d="M495.288,200.35H324.108l-68.116-68.116v179.418h255.992v-94.606
    	C511.983,207.807,504.527,200.35,495.288,200.35z"/>
    <path style="fill:#C4CAD9;" d="M0,278.26v217.036c0,9.222,7.478,16.695,16.695,16.695h478.593c9.217,0,16.695-7.473,16.695-16.695
    	V278.26H0L0,278.26z"/>
    <path style="fill:#B8BFCC;" d="M255.992,511.991h239.297c9.217,0,16.695-7.473,16.695-16.695V278.26H255.992V511.991z"/>
    <path style="fill:#7F838C;" d="M329.673,44.528c-21.036,23.596-49.863,27.936-73.681,14.469c-6.457-3.45-12.577-8.348-18.031-14.469
    	c-13.246-14.469-28.827-14.58-41.849,0c-6.12,6.901-16.695,7.457-23.596,1.336c-6.901-6.233-7.456-16.695-1.336-23.596
    	c24.376-27.38,59.435-28.827,84.811-6.678c2.449,1.892,4.674,4.229,6.901,6.678c13.246,14.469,28.827,14.58,41.849,0
    	c6.12-6.901,16.695-7.457,23.596-1.336C335.238,27.166,335.793,37.628,329.673,44.528z"/>
    <path style="fill:#626873;" d="M445.203,511.991H333.902V361.736c0-9.22,7.475-16.695,16.695-16.695h77.911
    	c9.22,0,16.695,7.475,16.695,16.695V511.991z"/>
    <path style="fill:#7F838C;" d="M150.256,445.211h-66.78c-9.217,0-16.695-7.473-16.695-16.695v-66.78
    	c0-9.222,7.478-16.695,16.695-16.695h66.78c9.217,0,16.695,7.473,16.695,16.695v66.78
    	C166.951,437.738,159.473,445.211,150.256,445.211z"/>
    <path style="fill:#57DEFF;" d="M100.171,411.821h33.39v-33.39h-33.39V411.821z"/>
    <path style="fill:#7F838C;" d="M283.817,445.211h-66.78c-9.217,0-16.695-7.473-16.695-16.695v-66.78
    	c0-9.222,7.478-16.695,16.695-16.695h66.78c9.217,0,16.695,7.473,16.695,16.695v66.78
    	C300.512,437.738,293.034,445.211,283.817,445.211z"/>
    <path style="fill:#757982;" d="M283.817,345.04h-27.825v100.171h27.825c9.217,0,16.695-7.473,16.695-16.695v-66.78
    	C300.512,352.513,293.034,345.04,283.817,345.04z"/>
    <path style="fill:#57DEFF;" d="M233.732,411.821h33.39v-33.39h-33.39V411.821z"/>
    <rect x="255.992" y="378.434" style="fill:#4EC9E6;" width="11.13" height="33.39"/>
    <path style="fill:#757982;" d="M329.673,44.528c-21.036,23.596-49.863,27.936-73.681,14.469V15.59
    	c2.449,1.892,4.674,4.229,6.901,6.678c13.246,14.469,28.827,14.58,41.849,0c6.12-6.901,16.695-7.457,23.596-1.336
    	C335.238,27.166,335.793,37.628,329.673,44.528z"/>
  </symbol>

  <symbol id="plus-icon" viewBox="0 0 470.007 470.007">
    <title>Plus icon</title>
    <g>
    	<path d="M394,154.175c-5.331-5.33-11.806-7.994-19.417-7.994H255.811V27.406c0-7.611-2.666-14.084-7.994-19.414
    		C242.488,2.666,236.02,0,228.398,0h-54.812c-7.612,0-14.084,2.663-19.414,7.993c-5.33,5.33-7.994,11.803-7.994,19.414v118.775
    		H27.407c-7.611,0-14.084,2.664-19.414,7.994S0,165.973,0,173.589v54.819c0,7.618,2.662,14.086,7.992,19.411
    		c5.33,5.332,11.803,7.994,19.414,7.994h118.771V374.59c0,7.611,2.664,14.089,7.994,19.417c5.33,5.325,11.802,7.987,19.414,7.987
    		h54.816c7.617,0,14.086-2.662,19.417-7.987c5.332-5.331,7.994-11.806,7.994-19.417V255.813h118.77
    		c7.618,0,14.089-2.662,19.417-7.994c5.329-5.325,7.994-11.793,7.994-19.411v-54.819C401.991,165.973,399.332,159.502,394,154.175z"
    		/>
    </g>
  </symbol>
  <symbol id="company-icon" viewBox="0 0 204 204">
    <title>Company navigation ment</title>
    <g>
    	<path d="M89,89h25v31h51V14h-16V0H55v14H39v106h50V89z M126,29h24v16h-24V29z M126,59h24v16h-24V59z M126,89h24v16h-24V89z M89,29   h25v16H89V29z M89,59h25v16H89V59z M77,105H53V89h24V105z M77,75H53V59h24V75z M77,45H53V29h24V45z" fill="#FFFFFF"/>
    	<polygon points="164,174 164,153 164,135 164,134 40,134 40,135 40,153 40,174 29,174 29,204 70,204 70,174 59,174 59,153    60.083,153 145,153 145,174 134,174 134,204 175,204 175,174  " fill="#FFFFFF"/>
    </g>
  </symbol>

  <symbol id="employees-number-icon" viewBox="0 0 512 512">
    <title>Employees number</title>
    <g>
			<circle cx="256.001" cy="232.132" r="10.689"/>
			<circle cx="256.001" cy="268.111" r="10.689"/>
			<path d="M423.565,112.31c5.87-8.252,9.338-18.327,9.338-29.203V50.505C432.903,22.656,410.247,0,382.398,0h-6.948
				c-27.849,0-50.505,22.656-50.505,50.505v32.601c0,10.843,3.446,20.889,9.284,29.127h-33.534
				c5.838-8.238,9.285-18.284,9.285-29.127V50.505C309.98,22.656,287.324,0,259.475,0h-6.948c-27.849,0-50.505,22.656-50.505,50.505
				v32.601c0,10.843,3.447,20.889,9.287,29.127h-33.534c5.837-8.238,9.283-18.284,9.283-29.127V50.505
				C187.057,22.656,164.401,0,136.552,0h-6.948c-27.849,0-50.505,22.656-50.505,50.505v32.601c0,10.876,3.467,20.951,9.338,29.203
				c-37.537,1.572-67.593,32.454-67.593,70.204v104.217c0,21.66,17.689,39.282,39.434,39.282c0.219,0,0.434-0.019,0.65-0.033
				v150.391c0,19.646,15.983,35.629,35.629,35.629h11.579c9.701,0,18.509-3.897,24.94-10.208c6.432,6.311,15.24,10.208,24.94,10.208
				h11.579c9.703,0,18.498-3.914,24.93-10.228c6.433,6.32,15.243,10.228,24.952,10.228h11.579c9.701,0,18.509-3.897,24.94-10.208
				c6.432,6.311,15.24,10.208,24.941,10.208h11.58c9.709,0,18.52-3.908,24.952-10.228c6.43,6.314,15.225,10.228,24.929,10.228h11.58
				c9.7,0,18.509-3.897,24.94-10.208c6.432,6.311,15.24,10.208,24.941,10.208h11.58c19.646,0,35.629-15.983,35.629-35.629V325.979
				c0.216,0.013,0.431,0.033,0.65,0.033c21.743,0,39.434-17.622,39.434-39.282V182.514
				C491.158,144.763,461.102,113.882,423.565,112.31z M346.323,50.505c0-16.061,13.067-29.127,29.127-29.127h6.948
				c16.06,0,29.127,13.066,29.127,29.127v32.601c0,16.061-13.067,29.127-29.127,29.127h-6.948c-16.06,0-29.127-13.066-29.127-29.127
				V50.505z M223.4,50.505c0-16.061,13.066-29.127,29.127-29.127h6.948c16.06,0,29.127,13.066,29.127,29.127v32.601
				c0,16.061-13.067,29.127-29.127,29.127h-6.948c-16.061,0-29.127-13.066-29.127-29.127V50.505z M280.722,133.612l-24.721,40.565
				l-24.721-40.565H280.722z M100.477,50.505c0-16.061,13.066-29.127,29.127-29.127h6.948c16.061,0,29.127,13.066,29.127,29.127
				v32.601c0,16.061-13.066,29.127-29.127,29.127h-6.948c-16.061,0-29.127-13.066-29.127-29.127V50.505z M71.617,207.9
				c-5.904,0-10.689,4.785-10.689,10.689v0.003v86.075c-0.216-0.013-0.431-0.033-0.65-0.033c-9.956,0-18.056-8.032-18.056-17.904
				V182.513c0-26.965,22.079-48.902,49.217-48.902h72.284c-12.341,12.659-19.955,29.909-19.955,48.902V286.73
				c0,3.46,0.456,6.815,1.303,10.014l-11.971,6.062l-50.795-25.833v-58.38v-0.004C82.306,212.685,77.52,207.9,71.617,207.9z
				 M183.851,476.37c0,7.86-6.393,14.253-14.252,14.253H158.02c-7.858,0-14.252-6.393-14.252-14.252v-117.49
				c0-5.904-4.785-10.689-10.689-10.689c-5.903,0-10.689,4.785-10.689,10.689v117.49c0,7.859-6.393,14.252-14.252,14.252H96.557
				c-7.858,0-14.252-6.393-14.252-14.252V300.957l45.938,23.364c1.522,0.774,3.184,1.161,4.845,1.161
				c1.655,0,3.31-0.384,4.829-1.153l18.111-9.171c7.079,6.717,16.646,10.855,27.171,10.855c0.219,0,0.434-0.019,0.65-0.033V476.37z
				 M306.773,476.371c0,7.859-6.393,14.252-14.252,14.252h-11.58c-7.859,0-14.252-6.393-14.252-14.252v-117.49
				c0-5.904-4.786-10.689-10.689-10.689c-5.904,0-10.689,4.785-10.689,10.689v117.49c0,7.859-6.393,14.252-14.252,14.252h-11.579
				c-7.859,0-14.252-6.393-14.252-14.252v-175.3l45.934,23.258c1.519,0.768,3.174,1.153,4.829,1.153
				c1.662,0,3.323-0.387,4.845-1.161l45.936-23.365V476.371z M317.462,207.9c-5.902,0-10.689,4.785-10.689,10.689v0.003v58.38
				l-50.794,25.834l-50.751-25.697v-58.517v-0.003c0-5.904-4.785-10.689-10.689-10.689s-10.689,4.785-10.689,10.689v0.003v86.075
				c-0.216-0.013-0.431-0.033-0.65-0.033c-9.956,0-18.056-8.032-18.056-17.904V182.513c0-24.346,18.001-44.588,41.472-48.292
				l40.257,66.058c1.94,3.184,5.399,5.126,9.127,5.126s7.187-1.942,9.127-5.126l40.257-66.058
				c23.471,3.703,41.472,23.945,41.472,48.292V286.73c0,9.872-8.099,17.904-18.056,17.904c-0.219,0-0.434,0.019-0.65,0.033v-86.075
				v-0.003C328.151,212.685,323.365,207.9,317.462,207.9z M429.696,476.371c0,7.859-6.393,14.252-14.252,14.252h-11.58
				c-7.859,0-14.252-6.393-14.252-14.252v-117.49c0-5.904-4.786-10.689-10.689-10.689c-5.902,0-10.689,4.785-10.689,10.689v117.49
				c0,7.859-6.393,14.252-14.252,14.252h-11.58c-7.859,0-14.252-6.393-14.252-14.252V325.979c0.216,0.013,0.431,0.033,0.65,0.033
				c10.525,0,20.092-4.137,27.171-10.855l18.111,9.171c1.519,0.768,3.174,1.153,4.829,1.153c1.662,0,3.323-0.387,4.845-1.161
				l45.938-23.365V476.371z M451.724,304.635c-0.219,0-0.434,0.019-0.65,0.033v-86.075v-0.004c0-5.904-4.786-10.689-10.689-10.689
				c-5.902,0-10.689,4.785-10.689,10.689v0.003v58.38l-50.794,25.834l-11.972-6.062c0.848-3.198,1.303-6.554,1.303-10.014V182.513
				c0-18.993-7.615-36.243-19.956-48.902h72.284c27.139,0,49.217,21.937,49.217,48.902v104.218h0.001
				C469.78,296.603,461.681,304.635,451.724,304.635z"/>
		</g>
  </symbol>
</svg>
