<svg xmlns="http://www.w3.org/2000/svg" style="display:none;">
  <symbol id="search-magnifier" viewBox="0 0 470.007 470.007">
    <title>Search icon</title>
    <g>
    	<g>
    		<path d="M471.882,407.567L360.567,296.243c-16.586,25.795-38.536,47.734-64.331,64.321l111.324,111.324
    			c17.772,17.768,46.587,17.768,64.321,0C489.654,454.149,489.654,425.334,471.882,407.567z"/>
    		<path d="M363.909,181.955C363.909,81.473,282.44,0,181.956,0C81.474,0,0.001,81.473,0.001,181.955s81.473,181.951,181.955,181.951
    			C282.44,363.906,363.909,282.437,363.909,181.955z M181.956,318.416c-75.252,0-136.465-61.208-136.465-136.46
    			c0-75.252,61.213-136.465,136.465-136.465c75.25,0,136.468,61.213,136.468,136.465
    			C318.424,257.208,257.206,318.416,181.956,318.416z"/>
    		<path d="M75.817,181.955h30.322c0-41.803,34.014-75.814,75.816-75.814V75.816C123.438,75.816,75.817,123.437,75.817,181.955z"/>
    	</g>
    </g>
  </symbol>

  <symbol id="company-image-placeholder" viewBox="0 0 470.007 470.007">
    <title>Company image placeholder</title>
    <path style="fill:#757982;" d="M498.071,233.517H347.815c-9.017-1.558-15.248-10.128-13.69-19.255l7.902-47.303l16.695-100.171
    	l8.793-52.868c1.336-8.014,8.348-13.913,16.473-13.913h77.91c8.125,0,15.137,5.899,16.473,13.913l8.793,52.868l16.695,100.171
    	l7.902,47.303C513.319,223.389,507.087,231.959,498.071,233.517z"/>
    <g>
    	<polygon style="fill:#B8BFCC;" points="503.858,166.959 342.027,166.959 347.592,133.569 498.293,133.569 	"/>
    	<polygon style="fill:#B8BFCC;" points="492.728,100.179 353.157,100.179 358.722,66.789 487.163,66.789 	"/>
    </g>
    <path style="fill:#A1A7B3;" d="M495.288,200.35H324.108l-68.116-68.116l-27.156-27.156c-10.463-10.462-28.494-3.005-28.494,11.798
    	v59.88l-71.677-71.678c-10.463-10.462-28.494-3.116-28.494,11.798v59.88l-71.677-71.678C18.031,94.614,0,102.071,0,116.874V311.65
    	h255.992h255.992v-94.606C511.983,207.807,504.527,200.35,495.288,200.35z"/>
    <path style="fill:#979CA7;" d="M495.288,200.35H324.108l-68.116-68.116v179.418h255.992v-94.606
    	C511.983,207.807,504.527,200.35,495.288,200.35z"/>
    <path style="fill:#C4CAD9;" d="M0,278.26v217.036c0,9.222,7.478,16.695,16.695,16.695h478.593c9.217,0,16.695-7.473,16.695-16.695
    	V278.26H0L0,278.26z"/>
    <path style="fill:#B8BFCC;" d="M255.992,511.991h239.297c9.217,0,16.695-7.473,16.695-16.695V278.26H255.992V511.991z"/>
    <path style="fill:#7F838C;" d="M329.673,44.528c-21.036,23.596-49.863,27.936-73.681,14.469c-6.457-3.45-12.577-8.348-18.031-14.469
    	c-13.246-14.469-28.827-14.58-41.849,0c-6.12,6.901-16.695,7.457-23.596,1.336c-6.901-6.233-7.456-16.695-1.336-23.596
    	c24.376-27.38,59.435-28.827,84.811-6.678c2.449,1.892,4.674,4.229,6.901,6.678c13.246,14.469,28.827,14.58,41.849,0
    	c6.12-6.901,16.695-7.457,23.596-1.336C335.238,27.166,335.793,37.628,329.673,44.528z"/>
    <path style="fill:#626873;" d="M445.203,511.991H333.902V361.736c0-9.22,7.475-16.695,16.695-16.695h77.911
    	c9.22,0,16.695,7.475,16.695,16.695V511.991z"/>
    <path style="fill:#7F838C;" d="M150.256,445.211h-66.78c-9.217,0-16.695-7.473-16.695-16.695v-66.78
    	c0-9.222,7.478-16.695,16.695-16.695h66.78c9.217,0,16.695,7.473,16.695,16.695v66.78
    	C166.951,437.738,159.473,445.211,150.256,445.211z"/>
    <path style="fill:#57DEFF;" d="M100.171,411.821h33.39v-33.39h-33.39V411.821z"/>
    <path style="fill:#7F838C;" d="M283.817,445.211h-66.78c-9.217,0-16.695-7.473-16.695-16.695v-66.78
    	c0-9.222,7.478-16.695,16.695-16.695h66.78c9.217,0,16.695,7.473,16.695,16.695v66.78
    	C300.512,437.738,293.034,445.211,283.817,445.211z"/>
    <path style="fill:#757982;" d="M283.817,345.04h-27.825v100.171h27.825c9.217,0,16.695-7.473,16.695-16.695v-66.78
    	C300.512,352.513,293.034,345.04,283.817,345.04z"/>
    <path style="fill:#57DEFF;" d="M233.732,411.821h33.39v-33.39h-33.39V411.821z"/>
    <rect x="255.992" y="378.434" style="fill:#4EC9E6;" width="11.13" height="33.39"/>
    <path style="fill:#757982;" d="M329.673,44.528c-21.036,23.596-49.863,27.936-73.681,14.469V15.59
    	c2.449,1.892,4.674,4.229,6.901,6.678c13.246,14.469,28.827,14.58,41.849,0c6.12-6.901,16.695-7.457,23.596-1.336
    	C335.238,27.166,335.793,37.628,329.673,44.528z"/>
  </symbol>

  <symbol id="plus-icon" viewBox="0 0 470.007 470.007">
    <title>Plus icon</title>
    <g>
    	<path d="M394,154.175c-5.331-5.33-11.806-7.994-19.417-7.994H255.811V27.406c0-7.611-2.666-14.084-7.994-19.414
    		C242.488,2.666,236.02,0,228.398,0h-54.812c-7.612,0-14.084,2.663-19.414,7.993c-5.33,5.33-7.994,11.803-7.994,19.414v118.775
    		H27.407c-7.611,0-14.084,2.664-19.414,7.994S0,165.973,0,173.589v54.819c0,7.618,2.662,14.086,7.992,19.411
    		c5.33,5.332,11.803,7.994,19.414,7.994h118.771V374.59c0,7.611,2.664,14.089,7.994,19.417c5.33,5.325,11.802,7.987,19.414,7.987
    		h54.816c7.617,0,14.086-2.662,19.417-7.987c5.332-5.331,7.994-11.806,7.994-19.417V255.813h118.77
    		c7.618,0,14.089-2.662,19.417-7.994c5.329-5.325,7.994-11.793,7.994-19.411v-54.819C401.991,165.973,399.332,159.502,394,154.175z"
    		/>
    </g>
  </symbol>
  <symbol id="company-icon" viewBox="0 0 204 204">
    <title>Company navigation ment</title>
    <g>
    	<path d="M89,89h25v31h51V14h-16V0H55v14H39v106h50V89z M126,29h24v16h-24V29z M126,59h24v16h-24V59z M126,89h24v16h-24V89z M89,29   h25v16H89V29z M89,59h25v16H89V59z M77,105H53V89h24V105z M77,75H53V59h24V75z M77,45H53V29h24V45z" fill="#FFFFFF"/>
    	<polygon points="164,174 164,153 164,135 164,134 40,134 40,135 40,153 40,174 29,174 29,204 70,204 70,174 59,174 59,153    60.083,153 145,153 145,174 134,174 134,204 175,204 175,174  " fill="#FFFFFF"/>
    </g>
  </symbol>

  <symbol id="employees-number-icon" viewBox="0 0 512 512">
    <title>Employees number</title>
    <g>
			<circle cx="256.001" cy="232.132" r="10.689"/>
			<circle cx="256.001" cy="268.111" r="10.689"/>
			<path d="M423.565,112.31c5.87-8.252,9.338-18.327,9.338-29.203V50.505C432.903,22.656,410.247,0,382.398,0h-6.948
				c-27.849,0-50.505,22.656-50.505,50.505v32.601c0,10.843,3.446,20.889,9.284,29.127h-33.534
				c5.838-8.238,9.285-18.284,9.285-29.127V50.505C309.98,22.656,287.324,0,259.475,0h-6.948c-27.849,0-50.505,22.656-50.505,50.505
				v32.601c0,10.843,3.447,20.889,9.287,29.127h-33.534c5.837-8.238,9.283-18.284,9.283-29.127V50.505
				C187.057,22.656,164.401,0,136.552,0h-6.948c-27.849,0-50.505,22.656-50.505,50.505v32.601c0,10.876,3.467,20.951,9.338,29.203
				c-37.537,1.572-67.593,32.454-67.593,70.204v104.217c0,21.66,17.689,39.282,39.434,39.282c0.219,0,0.434-0.019,0.65-0.033
				v150.391c0,19.646,15.983,35.629,35.629,35.629h11.579c9.701,0,18.509-3.897,24.94-10.208c6.432,6.311,15.24,10.208,24.94,10.208
				h11.579c9.703,0,18.498-3.914,24.93-10.228c6.433,6.32,15.243,10.228,24.952,10.228h11.579c9.701,0,18.509-3.897,24.94-10.208
				c6.432,6.311,15.24,10.208,24.941,10.208h11.58c9.709,0,18.52-3.908,24.952-10.228c6.43,6.314,15.225,10.228,24.929,10.228h11.58
				c9.7,0,18.509-3.897,24.94-10.208c6.432,6.311,15.24,10.208,24.941,10.208h11.58c19.646,0,35.629-15.983,35.629-35.629V325.979
				c0.216,0.013,0.431,0.033,0.65,0.033c21.743,0,39.434-17.622,39.434-39.282V182.514
				C491.158,144.763,461.102,113.882,423.565,112.31z M346.323,50.505c0-16.061,13.067-29.127,29.127-29.127h6.948
				c16.06,0,29.127,13.066,29.127,29.127v32.601c0,16.061-13.067,29.127-29.127,29.127h-6.948c-16.06,0-29.127-13.066-29.127-29.127
				V50.505z M223.4,50.505c0-16.061,13.066-29.127,29.127-29.127h6.948c16.06,0,29.127,13.066,29.127,29.127v32.601
				c0,16.061-13.067,29.127-29.127,29.127h-6.948c-16.061,0-29.127-13.066-29.127-29.127V50.505z M280.722,133.612l-24.721,40.565
				l-24.721-40.565H280.722z M100.477,50.505c0-16.061,13.066-29.127,29.127-29.127h6.948c16.061,0,29.127,13.066,29.127,29.127
				v32.601c0,16.061-13.066,29.127-29.127,29.127h-6.948c-16.061,0-29.127-13.066-29.127-29.127V50.505z M71.617,207.9
				c-5.904,0-10.689,4.785-10.689,10.689v0.003v86.075c-0.216-0.013-0.431-0.033-0.65-0.033c-9.956,0-18.056-8.032-18.056-17.904
				V182.513c0-26.965,22.079-48.902,49.217-48.902h72.284c-12.341,12.659-19.955,29.909-19.955,48.902V286.73
				c0,3.46,0.456,6.815,1.303,10.014l-11.971,6.062l-50.795-25.833v-58.38v-0.004C82.306,212.685,77.52,207.9,71.617,207.9z
				 M183.851,476.37c0,7.86-6.393,14.253-14.252,14.253H158.02c-7.858,0-14.252-6.393-14.252-14.252v-117.49
				c0-5.904-4.785-10.689-10.689-10.689c-5.903,0-10.689,4.785-10.689,10.689v117.49c0,7.859-6.393,14.252-14.252,14.252H96.557
				c-7.858,0-14.252-6.393-14.252-14.252V300.957l45.938,23.364c1.522,0.774,3.184,1.161,4.845,1.161
				c1.655,0,3.31-0.384,4.829-1.153l18.111-9.171c7.079,6.717,16.646,10.855,27.171,10.855c0.219,0,0.434-0.019,0.65-0.033V476.37z
				 M306.773,476.371c0,7.859-6.393,14.252-14.252,14.252h-11.58c-7.859,0-14.252-6.393-14.252-14.252v-117.49
				c0-5.904-4.786-10.689-10.689-10.689c-5.904,0-10.689,4.785-10.689,10.689v117.49c0,7.859-6.393,14.252-14.252,14.252h-11.579
				c-7.859,0-14.252-6.393-14.252-14.252v-175.3l45.934,23.258c1.519,0.768,3.174,1.153,4.829,1.153
				c1.662,0,3.323-0.387,4.845-1.161l45.936-23.365V476.371z M317.462,207.9c-5.902,0-10.689,4.785-10.689,10.689v0.003v58.38
				l-50.794,25.834l-50.751-25.697v-58.517v-0.003c0-5.904-4.785-10.689-10.689-10.689s-10.689,4.785-10.689,10.689v0.003v86.075
				c-0.216-0.013-0.431-0.033-0.65-0.033c-9.956,0-18.056-8.032-18.056-17.904V182.513c0-24.346,18.001-44.588,41.472-48.292
				l40.257,66.058c1.94,3.184,5.399,5.126,9.127,5.126s7.187-1.942,9.127-5.126l40.257-66.058
				c23.471,3.703,41.472,23.945,41.472,48.292V286.73c0,9.872-8.099,17.904-18.056,17.904c-0.219,0-0.434,0.019-0.65,0.033v-86.075
				v-0.003C328.151,212.685,323.365,207.9,317.462,207.9z M429.696,476.371c0,7.859-6.393,14.252-14.252,14.252h-11.58
				c-7.859,0-14.252-6.393-14.252-14.252v-117.49c0-5.904-4.786-10.689-10.689-10.689c-5.902,0-10.689,4.785-10.689,10.689v117.49
				c0,7.859-6.393,14.252-14.252,14.252h-11.58c-7.859,0-14.252-6.393-14.252-14.252V325.979c0.216,0.013,0.431,0.033,0.65,0.033
				c10.525,0,20.092-4.137,27.171-10.855l18.111,9.171c1.519,0.768,3.174,1.153,4.829,1.153c1.662,0,3.323-0.387,4.845-1.161
				l45.938-23.365V476.371z M451.724,304.635c-0.219,0-0.434,0.019-0.65,0.033v-86.075v-0.004c0-5.904-4.786-10.689-10.689-10.689
				c-5.902,0-10.689,4.785-10.689,10.689v0.003v58.38l-50.794,25.834l-11.972-6.062c0.848-3.198,1.303-6.554,1.303-10.014V182.513
				c0-18.993-7.615-36.243-19.956-48.902h72.284c27.139,0,49.217,21.937,49.217,48.902v104.218h0.001
				C469.78,296.603,461.681,304.635,451.724,304.635z"/>
		</g>
  </symbol>

  <symbol id="vacancies-number-icon" viewBox="0 0 470.586 470.586">
    <title>Vacancies number icon</title>
    <g>
    	<path d="M327.081,0H90.234C74.331,0,61.381,12.959,61.381,28.859v412.863c0,15.924,12.95,28.863,28.853,28.863H380.35
    		c15.917,0,28.855-12.939,28.855-28.863V89.234L327.081,0z M333.891,43.184l35.996,39.121h-35.996V43.184z M384.972,441.723
    		c0,2.542-2.081,4.629-4.635,4.629H90.234c-2.55,0-4.619-2.087-4.619-4.629V28.859c0-2.548,2.069-4.613,4.619-4.613h219.411v70.181
    		c0,6.682,5.443,12.099,12.129,12.099h63.198V441.723z M128.364,128.89H334.15c5.013,0,9.079,4.066,9.079,9.079
    		c0,5.013-4.066,9.079-9.079,9.079H128.364c-5.012,0-9.079-4.066-9.079-9.079C119.285,132.957,123.352,128.89,128.364,128.89z
    		 M343.229,198.98c0,5.012-4.066,9.079-9.079,9.079H128.364c-5.012,0-9.079-4.066-9.079-9.079s4.067-9.079,9.079-9.079H334.15
    		C339.163,189.901,343.229,193.968,343.229,198.98z M343.229,257.993c0,5.013-4.066,9.079-9.079,9.079H128.364
    		c-5.012,0-9.079-4.066-9.079-9.079s4.067-9.079,9.079-9.079H334.15C339.163,248.914,343.229,252.98,343.229,257.993z
    		 M343.229,318.011c0,5.013-4.066,9.079-9.079,9.079H128.364c-5.012,0-9.079-4.066-9.079-9.079s4.067-9.079,9.079-9.079H334.15
    		C339.163,308.932,343.229,312.998,343.229,318.011z"/>
    </g>
  </symbol>

  <symbol id="edit-icon" viewBox="0 0 53.255 53.255">
    <title>Color edit icon</title>
    <path style="fill:#D75A4A;" d="M39.598,2.343c3.124-3.124,8.19-3.124,11.314,0s3.124,8.19,0,11.314L39.598,2.343z"/>
    <polygon style="fill:#ED8A19;" points="42.426,17.899 16.512,43.814 15.982,48.587 44.548,20.02 44.548,20.02 "/>
    <polygon style="fill:#ED8A19;" points="10.325,42.93 15.098,42.4 41.012,16.485 36.77,12.243 10.855,38.157 "/>
    <polygon style="fill:#ED8A19;" points="35.356,10.829 33.234,8.707 33.234,8.707 4.668,37.273 9.441,36.743 "/>
    <polygon style="fill:#C7CAC7;" points="48.79,15.778 48.79,15.778 50.912,13.657 39.598,2.343 37.476,4.465 37.477,4.465 "/>
    <polygon style="fill:#C7CAC7;" points="36.062,5.879 36.062,5.879 34.648,7.293 34.648,7.293 45.962,18.606 45.962,18.606
    	47.376,17.192 47.376,17.192 "/>
    <path style="fill:#FBCE9D;" d="M14.424,44.488l-5.122,0.569c-0.036,0.004-0.073,0.006-0.109,0.006c0,0-0.001,0-0.001,0H9.192H9.192
    	c-0.001,0-0.001,0-0.001,0c-0.036,0-0.073-0.002-0.109-0.006c-0.039-0.004-0.071-0.026-0.108-0.035
    	c-0.072-0.017-0.141-0.035-0.207-0.067c-0.05-0.024-0.093-0.053-0.138-0.084c-0.057-0.04-0.109-0.083-0.157-0.134
    	c-0.038-0.04-0.069-0.081-0.1-0.127c-0.038-0.057-0.069-0.116-0.095-0.181c-0.022-0.054-0.038-0.107-0.05-0.165
    	c-0.007-0.032-0.024-0.059-0.028-0.092c-0.004-0.038,0.01-0.073,0.01-0.11c0-0.038-0.014-0.072-0.01-0.11l0.569-5.122l-5.122,0.569
    	c-0.037,0.004-0.075,0.006-0.111,0.006c-0.079,0-0.152-0.024-0.227-0.042L0.442,51.399l2.106-2.106c0.391-0.391,1.023-0.391,1.414,0
    	s0.391,1.023,0,1.414l-2.106,2.106l12.03-2.864c-0.026-0.109-0.043-0.222-0.03-0.339L14.424,44.488z"/>
    <path style="fill:#38454F;" d="M3.962,49.293c-0.391-0.391-1.023-0.391-1.414,0l-2.106,2.106L0,53.255l1.856-0.442l2.106-2.106
    	C4.352,50.316,4.352,49.684,3.962,49.293z"/>
    <polygon style="fill:#F2ECBF;" points="48.79,15.778 37.477,4.465 37.476,4.465 36.062,5.879 36.062,5.879 47.376,17.192
    	47.376,17.192 48.79,15.778 "/>
    <path style="fill:#EBBA16;" d="M41.012,16.485L15.098,42.4l-4.773,0.53l0.53-4.773L36.77,12.243l-1.414-1.414L9.441,36.743
    	l-4.773,0.53l-1.133,1.133l-0.228,0.957c0.075,0.018,0.147,0.042,0.227,0.042c0.036,0,0.074-0.002,0.111-0.006l5.122-0.569
    	l-0.569,5.122c-0.004,0.038,0.01,0.073,0.01,0.11c0,0.038-0.014,0.072-0.01,0.11c0.004,0.033,0.021,0.06,0.028,0.092
    	c0.012,0.057,0.029,0.112,0.05,0.165c0.026,0.064,0.057,0.124,0.095,0.181c0.03,0.045,0.063,0.088,0.1,0.127
    	c0.047,0.05,0.1,0.094,0.157,0.134c0.044,0.031,0.089,0.061,0.138,0.084c0.065,0.031,0.135,0.05,0.207,0.067
    	c0.038,0.009,0.069,0.03,0.108,0.035c0.036,0.004,0.072,0.006,0.109,0.006h0.001h0h0.001h0.001c0,0,0.001,0,0.001,0h0
    	c0.035,0,0.072-0.002,0.109-0.006l5.122-0.569l-0.569,5.122c-0.013,0.118,0.004,0.23,0.03,0.339l0.963-0.229l1.133-1.132l0.53-4.773
    	l25.914-25.915L41.012,16.485z"/>
    <polygon style="fill:#F2ECBF;" points="45.962,18.606 34.648,7.293 34.648,7.293 33.234,8.707 33.234,8.707 35.356,10.829
    	36.77,12.243 41.012,16.485 42.426,17.899 44.548,20.02 44.548,20.02 45.962,18.606 "/>
  </symbol>

  <symbol id="delete-icon" viewBox="0 0 512 512">
    <title>Color delete icon</title>

    <polygon style="fill:#E21B1B;" points="404.176,0 256,148.176 107.824,0 0,107.824 148.176,256 0,404.176 107.824,512 256,363.824
    	404.176,512 512,404.176 363.824,256 512,107.824 "/>
  </symbol>

  <symbol id="vacany-empty-icon" viewBox="0 0 284.26 284.259">
    <title>Empty vacancy icon</title>

    <g>
  		<path d="M0,212.531c0,12.898,10.499,23.399,23.399,23.399H260.86c12.903,0,23.399-10.501,23.399-23.399v-80.191
  			c0-12.9-10.496-23.399-23.399-23.399h-7.937V48.33h-15.6l0,0v60.61H46.938V48.33l0,0h-15.6v60.61h-7.939
  			C10.499,108.94,0,119.439,0,132.339V212.531z M15.6,132.339c0-4.301,3.499-7.8,7.8-7.8h7.939h221.575h7.942
  			c4.301,0,7.8,3.499,7.8,7.8v80.191c0,4.301-3.499,7.8-7.8,7.8H23.399c-4.301,0-7.8-3.499-7.8-7.8V132.339z"/>
  		<path d="M25.74,187.111h2.968c1.29,0,2.341-1.052,2.341-2.342v-12.481l7.612,13.269c0.515,0.904,1.643,1.555,2.688,1.555h3.339
  			c1.287,0,2.338-1.047,2.338-2.336v-23.856c0-1.29-1.051-2.336-2.338-2.336h-2.971c-1.29,0-2.338,1.046-2.338,2.336v12.136
  			l-7.348-12.902c-0.51-0.909-1.638-1.569-2.689-1.569H25.74c-1.29,0-2.341,1.046-2.341,2.336v23.856
  			C23.399,186.059,24.45,187.111,25.74,187.111z"/>
  		<path d="M62.284,187.832c4.06,0,7.234-1.158,9.392-3.382c2.875-2.712,4.332-6.632,4.332-11.639c0-5.104-1.462-9.028-4.291-11.599
  			c-2.198-2.274-5.372-3.422-9.432-3.422c-4.062,0-7.233,1.157-9.372,3.361c-2.899,2.631-4.367,6.551-4.367,11.659
  			c0,5.012,1.467,8.927,4.311,11.598C55.05,186.673,58.221,187.832,62.284,187.832z M56.528,172.8c0-2.6,0.546-4.59,1.627-5.936
  			c1.028-1.274,2.382-1.895,4.128-1.895c1.742,0,3.077,0.62,4.093,1.895c1.072,1.346,1.612,3.346,1.612,5.936
  			c0,2.61-0.541,4.616-1.607,5.957c-1.016,1.265-2.352,1.884-4.098,1.884c-1.45,0-2.61-0.416-3.552-1.279
  			c-0.322-0.295-0.82-0.914-1.056-1.311C56.911,176.756,56.528,174.984,56.528,172.8z"/>
  		<path d="M94.133,185.247c0.363,1.062,1.483,1.864,2.605,1.864h3.037c1.122,0,2.247-0.803,2.605-1.864l8.168-23.963
  			c0.226-0.66,0.137-1.351-0.239-1.868c-0.373-0.528-0.993-0.833-1.693-0.833h-3.552c-1.15,0-2.257,0.833-2.58,1.935l-4.139,14.34
  			l-4.103-14.33c-0.317-1.106-1.419-1.944-2.575-1.944H87.96c-0.696,0-1.315,0.305-1.696,0.827
  			c-0.378,0.528-0.467,1.214-0.244,1.874L94.133,185.247z"/>
  		<path d="M107.737,186.273c0.373,0.533,0.993,0.838,1.693,0.838h3.587c1.13,0,2.247-0.808,2.6-1.879l1.239-3.453l7.592,0.091
  			l1.077,3.352c0.343,1.082,1.46,1.89,2.6,1.89h3.795c0.701,0,1.32-0.305,1.699-0.833c0.376-0.538,0.455-1.214,0.218-1.874
  			l-8.48-23.973c-0.378-1.066-1.476-1.844-2.61-1.844h-4.05c-1.114,0-2.236,0.787-2.61,1.844l-8.559,23.973
  			C107.277,185.059,107.361,185.75,107.737,186.273z M119.086,174.71l1.551-4.703l1.513,4.703H119.086z"/>
  		<path d="M146.997,187.832c3.311,0,6.073-1.006,8.227-3.001c1.854-1.727,3.112-3.92,3.737-6.53
  			c0.152-0.645,0.015-1.305-0.381-1.812c-0.406-0.519-1.036-0.808-1.722-0.808h-3.301c-1.117,0-2.193,0.787-2.569,1.863
  			c-0.254,0.716-0.528,1.26-0.838,1.635c-0.726,0.925-1.777,1.371-3.229,1.371c-1.409,0-2.547-0.548-3.474-1.686
  			c-0.977-1.208-1.475-3.138-1.475-5.728c0-2.626,0.482-4.652,1.435-6.003c0.873-1.249,1.985-1.827,3.504-1.827
  			c1.513,0,2.595,0.406,3.306,1.229c0.284,0.335,0.543,0.822,0.776,1.442c0.401,1.056,1.483,1.833,2.575,1.833h3.341
  			c0.681,0,1.32-0.3,1.747-0.808c0.401-0.487,0.568-1.133,0.446-1.757c-0.264-1.452-0.883-2.904-1.868-4.316
  			c-2.234-3.22-5.784-4.854-10.532-4.854c-3.572,0-6.565,1.208-8.901,3.59c-2.635,2.696-3.974,6.525-3.974,11.38
  			c0,4.489,1.176,8.109,3.496,10.745C139.677,186.476,142.938,187.832,146.997,187.832z"/>
  		<path d="M161.479,187.111h3.585c1.127,0,2.244-0.808,2.6-1.879l1.239-3.453l7.587,0.091l1.076,3.352
  			c0.346,1.082,1.463,1.89,2.6,1.89h3.794c0.705,0,1.314-0.305,1.695-0.828c0.371-0.533,0.457-1.214,0.224-1.879l-8.479-23.973
  			c-0.371-1.047-1.493-1.844-2.615-1.844h-4.048c-1.112,0-2.239,0.787-2.609,1.844l-8.557,23.968
  			c-0.244,0.665-0.163,1.351,0.213,1.884C160.164,186.816,160.773,187.111,161.479,187.111z M171.138,174.71l1.549-4.697
  			l1.508,4.697H171.138z"/>
  		<path d="M189.256,187.111h2.966c1.29,0,2.341-1.052,2.341-2.342v-12.481l7.612,13.279c0.518,0.894,1.65,1.544,2.691,1.544h3.336
  			c1.289,0,2.341-1.047,2.341-2.336v-23.856c0-1.29-1.052-2.336-2.341-2.336h-2.971c-1.29,0-2.336,1.046-2.336,2.336v12.136
  			l-7.354-12.908c-0.513-0.903-1.64-1.563-2.686-1.563h-3.601c-1.29,0-2.346,1.046-2.346,2.336v23.856
  			C186.91,186.059,187.966,187.111,189.256,187.111z"/>
  		<path d="M225.076,187.832c3.306,0,6.073-1.006,8.221-3.001c1.864-1.727,3.118-3.926,3.737-6.535
  			c0.147-0.646,0.011-1.306-0.381-1.808c-0.406-0.519-1.035-0.808-1.716-0.808h-3.311c-1.112,0-2.194,0.787-2.569,1.863
  			c-0.249,0.711-0.523,1.249-0.833,1.635c-0.727,0.925-1.782,1.371-3.229,1.371c-1.412,0-2.55-0.548-3.474-1.686
  			c-0.975-1.208-1.473-3.138-1.473-5.728c0-2.626,0.482-4.652,1.432-6.003c0.874-1.249,1.991-1.827,3.504-1.827
  			c1.514,0,2.59,0.406,3.301,1.229c0.284,0.335,0.549,0.822,0.777,1.432c0.396,1.066,1.482,1.844,2.579,1.844h3.347
  			c0.681,0,1.31-0.3,1.736-0.803c0.406-0.487,0.569-1.132,0.457-1.767c-0.264-1.447-0.894-2.899-1.863-4.312
  			c-2.239-3.22-5.784-4.854-10.537-4.854c-3.569,0-6.565,1.208-8.896,3.59c-2.641,2.696-3.976,6.525-3.976,11.38
  			c0,4.489,1.173,8.109,3.488,10.745C217.749,186.476,221.009,187.832,225.076,187.832z"/>
  		<path d="M245.561,175.807c0.168,0.314,0.341,0.97,0.341,1.32v7.647c0,1.289,1.051,2.336,2.341,2.336h3.336
  			c1.29,0,2.341-1.047,2.341-2.336v-7.647c0-0.355,0.162-1.016,0.335-1.341l7.698-14.386c0.346-0.655,0.346-1.356,0.005-1.93
  			c-0.34-0.563-0.97-0.894-1.706-0.894h-4.057c-1.087,0-2.204,0.716-2.661,1.706l-3.565,7.81l-3.737-7.846
  			c-0.456-0.97-1.584-1.67-2.66-1.67h-4.307c-0.751,0-1.371,0.33-1.716,0.908c-0.336,0.574-0.32,1.28,0.04,1.93L245.561,175.807z"/>
  	</g>
  </symbol>

  <symbol id="user-placeholder" viewBox="0 0 482.9 482.9">
    <title>User placeholder icon</title>

    <g>
  		<path d="M239.7,260.2c0.5,0,1,0,1.6,0c0.2,0,0.4,0,0.6,0c0.3,0,0.7,0,1,0c29.3-0.5,53-10.8,70.5-30.5
  			c38.5-43.4,32.1-117.8,31.4-124.9c-2.5-53.3-27.7-78.8-48.5-90.7C280.8,5.2,262.7,0.4,242.5,0h-0.7c-0.1,0-0.3,0-0.4,0h-0.6
  			c-11.1,0-32.9,1.8-53.8,13.7c-21,11.9-46.6,37.4-49.1,91.1c-0.7,7.1-7.1,81.5,31.4,124.9C186.7,249.4,210.4,259.7,239.7,260.2z
  			 M164.6,107.3c0-0.3,0.1-0.6,0.1-0.8c3.3-71.7,54.2-79.4,76-79.4h0.4c0.2,0,0.5,0,0.8,0c27,0.6,72.9,11.6,76,79.4
  			c0,0.3,0,0.6,0.1,0.8c0.1,0.7,7.1,68.7-24.7,104.5c-12.6,14.2-29.4,21.2-51.5,21.4c-0.2,0-0.3,0-0.5,0l0,0c-0.2,0-0.3,0-0.5,0
  			c-22-0.2-38.9-7.2-51.4-21.4C157.7,176.2,164.5,107.9,164.6,107.3z"/>
  		<path d="M446.8,383.6c0-0.1,0-0.2,0-0.3c0-0.8-0.1-1.6-0.1-2.5c-0.6-19.8-1.9-66.1-45.3-80.9c-0.3-0.1-0.7-0.2-1-0.3
  			c-45.1-11.5-82.6-37.5-83-37.8c-6.1-4.3-14.5-2.8-18.8,3.3c-4.3,6.1-2.8,14.5,3.3,18.8c1.7,1.2,41.5,28.9,91.3,41.7
  			c23.3,8.3,25.9,33.2,26.6,56c0,0.9,0,1.7,0.1,2.5c0.1,9-0.5,22.9-2.1,30.9c-16.2,9.2-79.7,41-176.3,41
  			c-96.2,0-160.1-31.9-176.4-41.1c-1.6-8-2.3-21.9-2.1-30.9c0-0.8,0.1-1.6,0.1-2.5c0.7-22.8,3.3-47.7,26.6-56
  			c49.8-12.8,89.6-40.6,91.3-41.7c6.1-4.3,7.6-12.7,3.3-18.8c-4.3-6.1-12.7-7.6-18.8-3.3c-0.4,0.3-37.7,26.3-83,37.8
  			c-0.4,0.1-0.7,0.2-1,0.3c-43.4,14.9-44.7,61.2-45.3,80.9c0,0.9,0,1.7-0.1,2.5c0,0.1,0,0.2,0,0.3c-0.1,5.2-0.2,31.9,5.1,45.3
  			c1,2.6,2.8,4.8,5.2,6.3c3,2,74.9,47.8,195.2,47.8s192.2-45.9,195.2-47.8c2.3-1.5,4.2-3.7,5.2-6.3
  			C447,415.5,446.9,388.8,446.8,383.6z"/>
  	</g>
  </symbol>

  <symbol id="calendar-icon" viewBox="0 0 60 60">
    <title>Search icon</title>
    <g>
    	<path d="M57,4h-7V1c0-0.553-0.447-1-1-1h-7c-0.553,0-1,0.447-1,1v3H19V1c0-0.553-0.447-1-1-1h-7c-0.553,0-1,0.447-1,1v3H3
    		C2.447,4,2,4.447,2,5v11v43c0,0.553,0.447,1,1,1h54c0.553,0,1-0.447,1-1V16V5C58,4.447,57.553,4,57,4z M43,2h5v3v3h-5V5V2z M12,2h5
    		v3v3h-5V5V2z M4,6h6v3c0,0.553,0.447,1,1,1h7c0.553,0,1-0.447,1-1V6h22v3c0,0.553,0.447,1,1,1h7c0.553,0,1-0.447,1-1V6h6v9H4V6z
    		 M4,58V17h52v41H4z"/>
    	<path d="M38,23h-7h-2h-7h-2h-9v9v2v7v2v9h9h2h7h2h7h2h9v-9v-2v-7v-2v-9h-9H38z M31,25h7v7h-7V25z M38,41h-7v-7h7V41z M22,34h7v7h-7
    		V34z M22,25h7v7h-7V25z M13,25h7v7h-7V25z M13,34h7v7h-7V34z M20,50h-7v-7h7V50z M29,50h-7v-7h7V50z M38,50h-7v-7h7V50z M47,50h-7
    		v-7h7V50z M47,41h-7v-7h7V41z M47,25v7h-7v-7H47z"/>
    </g>
  </symbol>

  <symbol id="icon-ceo" viewBox="0 0 512 512">
    <title>CEO role icon</title>

    <g>
    	<path d="M256.021,215.284c53.893,0,95.694-60.116,95.694-111.824c0-52.78-42.925-95.722-95.694-95.722
    		c-52.792,0-95.731,42.941-95.731,95.722C160.29,155.168,202.091,215.284,256.021,215.284z M256.021,42.037
    		c33.864,0,61.396,27.55,61.396,61.424c0,34.893-28.338,77.526-61.396,77.526c-33.095,0-61.433-42.633-61.433-77.526
    		C194.588,69.587,222.138,42.037,256.021,42.037z"/>
    	<path d="M404.554,327.747v-62.501c0-40.689-22.257-76.12-55.217-94.978c0.097,1.567,0.266,3.115,0.266,4.708
    		c0,28.772-42.253,93.745-69.99,133.295l-11.369-55.779l12.063-12.063c1.44-1.44,1.441-3.776,0.001-5.217l-4.678-4.682
    		c-2.884-2.887-6.797-4.509-10.877-4.509h-17.504c-4.081,0-7.994,1.622-10.878,4.509l-4.678,4.683
    		c-1.439,1.441-1.438,3.776,0.002,5.217l12.062,12.063l-11.374,55.779c-27.732-39.558-69.985-104.523-69.985-133.295
    		c0-1.592,0.167-3.141,0.284-4.708c-32.959,18.851-55.217,54.28-55.217,94.978v62.494c-24.654,0.87-44.45,21.042-44.45,45.888
    		v84.583c0,25.392,20.648,46.049,46.04,46.049h293.871c25.391,0,46.058-20.658,46.058-46.049v-84.583
    		C448.984,348.792,429.189,328.619,404.554,327.747z M414.687,458.212c0,6.479-5.256,11.747-11.756,11.747H109.06
    		c-6.481,0-11.742-5.267-11.742-11.747v-84.586c0-6.482,5.261-11.749,11.742-11.749h293.871c6.5,0,11.756,5.267,11.756,11.749
    		V458.212z"/>
    	<path d="M197.772,390.758c4.557,0,8.411,0.749,11.534,1.739c0.781,0.248,1.63,0.163,2.347-0.235s1.237-1.074,1.44-1.868
    		l2.058-8.027c0.386-1.504-0.449-3.055-1.918-3.558c-3.609-1.236-9.288-2.339-16.268-2.339c-23.111,0-41.699,14.512-41.699,40.582
    		c0,21.763,13.598,38.201,40.01,38.201c7.376,0,13.393-1.071,17.152-2.308c1.427-0.469,2.275-1.921,1.99-3.396l-1.504-7.769
    		c-0.157-0.812-0.645-1.521-1.345-1.959c-0.7-0.438-1.552-0.569-2.351-0.356c-3.288,0.879-7.471,1.501-11.35,1.501
    		c-15.407,0-24.481-9.639-24.481-24.937C173.389,399.031,184.054,390.758,197.772,390.758z"/>
    	<path d="M243.594,421.818h25.14c1.646,0,2.979-1.334,2.979-2.979v-8.101c0-1.646-1.334-2.979-2.979-2.979h-25.14v-15.869h26.828
    		c1.645,0,2.979-1.334,2.979-2.979v-8.21c0-1.646-1.334-2.979-2.979-2.979h-41.2c-1.646,0-2.98,1.334-2.98,2.979v70.438
    		c0,1.646,1.334,2.979,2.98,2.979h42.794c1.646,0,2.98-1.334,2.98-2.979v-8.21c0-1.646-1.334-2.979-2.98-2.979h-28.422V421.818z"/>
    	<path d="M320.481,376.473c-22.557,0-37.162,17.116-37.162,40.01c0,21.763,13.248,38.88,35.906,38.88
    		c22.342,0,37.53-15.19,37.53-40.244C356.756,394.042,343.946,376.473,320.481,376.473z M320.145,441.648
    		c-11.57,0-18.588-10.543-18.588-25.498c0-14.857,6.799-25.96,18.471-25.96c11.91,0,18.489,11.782,18.489,25.499
    		C338.518,430.542,331.822,441.648,320.145,441.648z"/>
    </g>
  </symbol>

  <symbol id="icon-hr" viewBox="0 0 124 124">
    <title>HR role icon</title>

    <g>
    	<path d="M121.4,89.5H2.6c-1.4,0-2.6,1.2-2.6,2.6v9.801c0,1.399,1.2,2.6,2.6,2.6h118.8c1.399,0,2.6-1.2,2.6-2.6V92.1
    		C124,90.7,122.8,89.5,121.4,89.5z"/>
    	<path d="M2.7,77.5h11.9c1.7,0,3.4-1.7,3.4-3.4V56.7c0-1.7,1-3.2,2.7-3.2h13.6c1.7,0,2.8,1.5,2.8,3.2v17.5
    		c0,1.7,1.6,3.399,3.3,3.399h12c1.7,0,2.7-1.699,2.7-3.399V22c0-1.7-1-2.5-2.7-2.5h-12c-1.7,0-3.3,0.9-3.3,2.5v14.3
    		c0,1.7-1.1,3.2-2.8,3.2H20.7C19,39.5,18,38,18,36.3V22c0-1.7-1.7-2.5-3.4-2.5H2.7C1,19.5,0,20.4,0,22v52.1C0,75.8,1,77.5,2.7,77.5z
    		"/>
    	<path d="M109.9,50.3c0.899-0.3,1.6-0.7,2.3-1.1c2.399-1.5,4.3-3.4,5.7-5.7c1.399-2.3,2.1-5.1,2.1-8.3c0-3.7-0.9-6.8-2.7-9.4
    		c-1.8-2.6-4.2-4.1-7.1-5.1c-2.9-1-7.2-1.2-12.7-1.2H69.1c-0.899,0-2.1,0.2-2.1,1.1v55c0,0.9,1.2,1.9,2.1,1.9H84
    		c0.9,0,2.1-1,2.1-1.9V55.1c0-0.9,0.5-1.6,1.301-1.6c1.6,0,3,0.4,4.3,1.3c1,0.7,2,2.2,3.2,4.5l9.1,17.2c0.3,0.5,0.8,1,1.4,1h16.8
    		c1.2,0,2-1.4,1.399-2.5c-2.6-5.1-4.899-10.5-8.199-15.3c-1.301-1.9-2.7-4.1-4.4-5.6C109.9,53.2,107.7,51.2,109.9,50.3z M101,39.6
    		c-0.9,1.2-2.3,2-3.8,2.4c-3.2,0.9-6.601,0.6-9.9,0.6C86.4,42.6,86,41.9,86,41v-8.7c0-0.9,0.2-1.8,1.1-1.8H93.4
    		c2.8,0,5.8,0.2,7.6,2.8C102.3,35.1,102.3,37.8,101,39.6z"/>
    </g>
  </symbol>

  <symbol id="icon-candidate" viewBox="0 0 512.003 512.003">
    <title>Candidate role icon</title>

    <g>
  		<path d="M396.248,284.958l-46.869-18.079L325.43,242.93c-1.59-1.59-3.726-2.32-5.819-2.176v-20.429
  			c11.319-11.955,19.358-27.167,22.51-44.331c0.042-0.154,0.293-0.407,0.466-0.477c2.093,0.144,4.211,0.001,6.3-0.426
  			c10.905-2.232,18.821-12.369,18.821-24.103v-6.247c0-7.005-2.929-13.417-7.664-17.89c7.71-41.146,1.607-74.633-17.723-96.956
  			C323.743,8.445,293.752-1.803,255.593,0.26c-35.82,1.936-58.699,18.619-65.494,24.287c-9.546,1.191-37.794,8.042-37.794,47.331
  			c0,22.229,3.676,40.634,6.168,50.562c-8.454,3.709-14.184,12.394-14.184,22.396v6.153c0,11.733,7.916,21.87,18.821,24.103
  			c2.089,0.428,4.209,0.571,6.3,0.426c0.172,0.07,0.424,0.322,0.464,0.469c3.153,17.167,11.193,32.381,22.512,44.337v20.43
  			c-2.094-0.144-4.23,0.587-5.819,2.176l-23.948,23.948l-46.869,18.079c-22.213,8.568-36.498,30.308-35.544,54.097l6.638,165.746
  			c0.162,4.037,3.485,7.2,7.489,7.2c0.102,0,0.204-0.002,0.306-0.006c4.139-0.166,7.359-3.655,7.194-7.794l-6.638-165.746
  			c-0.195-4.861,0.483-9.604,1.914-14.053l27.275,27.275c7.668,7.668,11.891,17.863,11.891,28.707v124.118
  			c0,4.142,3.358,7.5,7.5,7.5s7.5-3.358,7.5-7.5v-124.12c0-14.85-5.783-28.812-16.284-39.313l-30.334-30.333
  			c4.314-5.144,9.929-9.251,16.493-11.783l44.1-17.01l33.582,50.374c3.926,5.89,10.218,9.667,17.262,10.364
  			c0.784,0.078,1.566,0.116,2.344,0.116c4.746,0,9.338-1.432,13.226-4.088l-7.204,165.465c-0.18,4.138,3.028,7.639,7.167,7.819
  			c0.111,0.005,0.222,0.007,0.332,0.007c3.992,0,7.312-3.146,7.487-7.174l6.657-152.898h19.798l6.657,152.898
  			c0.175,4.027,3.495,7.174,7.487,7.174c0.11,0,0.221-0.002,0.332-0.007c4.138-0.181,7.347-3.681,7.167-7.819L280.34,338.71
  			c3.887,2.657,8.479,4.088,13.226,4.088c0.778,0,1.561-0.039,2.344-0.116c7.043-0.697,13.335-4.475,17.262-10.364l33.582-50.374
  			l44.1,17.01c6.564,2.532,12.179,6.64,16.493,11.783l-30.334,30.333c-10.501,10.501-16.284,24.463-16.284,39.313v124.118
  			c0,4.142,3.358,7.5,7.5,7.5s7.5-3.358,7.5-7.5V380.383c0-10.844,4.223-21.039,11.891-28.707l27.275-27.275
  			c1.431,4.449,2.109,9.192,1.914,14.053L410.172,504.2c-0.166,4.139,3.055,7.628,7.194,7.794c0.103,0.004,0.204,0.006,0.306,0.006
  			c4.003,0,7.327-3.163,7.489-7.2l6.638-165.745C432.746,315.266,418.461,293.526,396.248,284.958z M184.622,173.275
  			c-1.411-7.699-8.531-13.286-16.219-12.724c-0.748,0.055-1.517,0.002-2.287-0.155c-3.894-0.797-6.83-4.841-6.83-9.407v-6.153
  			c0-4.552,2.979-8.508,6.93-9.202c3.256-0.571,6.384,0.628,8.363,3.208c1.436,1.873,3.348,3.211,5.53,3.871
  			c3.196,0.965,6.721,0.399,9.429-1.513c6.56-4.63,12.121-10.504,16.527-17.458c2.217-3.499,1.179-8.132-2.32-10.35
  			c-3.499-2.217-8.133-1.178-10.35,2.32c-2.681,4.23-5.911,7.926-9.629,11.024c-2.88-2.662-6.357-4.527-10.102-5.488
  			c-2.17-8.086-6.362-26.649-6.362-49.369c0-31.292,23.298-32.542,25.9-32.581c1.938,0,3.8-0.75,5.197-2.093
  			c0.208-0.199,21.187-19.977,58-21.967c33.359-1.802,59.149,6.661,74.578,24.478c15.709,18.139,20.832,46.019,14.944,80.872
  			c-2.7-0.184-5.784,0.019-8.825,0.594l-8.38-20.123c-1.438-3.453-5.208-5.316-8.823-4.372
  			c-0.801,0.209-80.584,20.448-114.202-21.403c-2.593-3.229-7.313-3.745-10.544-1.151c-3.229,2.594-3.745,7.315-1.15,10.544
  			c33.965,42.287,102.014,32.345,123.299,27.978l6.563,15.758c2.473,5.941,8.799,9.186,15.042,7.716
  			c2.758-0.649,5.595-0.73,6.866-0.478c3.955,0.787,6.937,4.694,6.937,9.089v6.247c0,4.566-2.936,8.61-6.83,9.407
  			c-0.77,0.158-1.538,0.209-2.286,0.155c-7.669-0.564-14.808,5.025-16.222,12.726c-6.326,34.442-36.342,59.441-71.372,59.441
  			C220.965,232.716,190.949,207.717,184.622,173.275z M224.442,325.296c-1.814,1.815-4.317,2.712-6.874,2.458
  			c-2.554-0.253-4.835-1.623-6.259-3.758l-33.838-50.758l14.739-14.739l52.815,46.213L224.442,325.296z M246.752,336.928
  			l0.579-13.308l8.667-8.667l8.666,8.667l0.579,13.308H246.752z M255.998,294.382l-48.613-42.536v-18.874
  			c13.997,9.349,30.76,14.747,48.613,14.747s34.616-5.398,48.613-14.746v18.873L255.998,294.382z M300.686,323.996
  			c-1.424,2.135-3.705,3.505-6.259,3.758c-2.557,0.255-5.059-0.644-6.874-2.458l-20.583-20.584l52.815-46.213l14.739,14.739
  			L300.686,323.996z"/>
  	</g>
  </symbol>

  <symbol id="icon-employee" viewBox="0 0 496 496">
    <title>Employee role icon</title>

    <g>
			<path d="M320,172c0-11.032-8.976-20-20-20s-20,8.968-20,20s8.976,20,20,20S320,183.032,320,172z M296,172c0-2.2,1.792-4,4-4
				s4,1.8,4,4s-1.792,4-4,4S296,174.2,296,172z"/>
			<path d="M372,152c-11.024,0-20,8.968-20,20s8.976,20,20,20s20-8.968,20-20S383.024,152,372,152z M372,176c-2.208,0-4-1.8-4-4
				s1.792-4,4-4s4,1.8,4,4S374.208,176,372,176z"/>
			<path d="M344,232h-16c-8.824,0-16-7.176-16-16h-16c0,17.648,14.352,32,32,32h16c17.648,0,32-14.352,32-32h-16
				C360,224.824,352.824,232,344,232z"/>
			<path d="M392,280h-8v-11.832c21.472-11.224,38.568-29.68,47.976-52.168H440c17.648,0,32-14.352,32-32v-48
				C472,61.008,410.992,0,336,0c-40.144,0-77.552,17.52-103.472,48H168V24c0-13.232-10.768-24-24-24h-16c-13.232,0-24,10.768-24,24
				v24H0v144h104v304h64v-60l48-36v96h280V384C496,326.656,449.344,280,392,280z M392,296c3.232,0,6.408,0.2,9.552,0.544
				l4.992,24.944l-43.344,7.336l-19.2,42.24v-39.752L379.312,296H392z M232,216h8.152c9.456,22.408,26.528,40.832,47.848,52.056V280
				h-22.136c-18.616,0-36.432,5.768-51.392,16.568L168,328.736V192h33.136C204.712,205.768,217.136,216,232,216z M218.224,192H232v8
				C226.104,200,221,196.76,218.224,192z M270.56,296h22.128L328,331.312v39.752l-19.2-42.24l-43.336-7.336L270.56,296z
				 M304,284.688v-9.904c10.136,3.328,20.872,5.216,32,5.216c11.168,0,21.912-1.816,32-5.088v9.776l-32,32L304,284.688z M424,152v24
				c0,48.52-39.48,88-88,88c-42.504,0-78.928-30.992-86.528-72H272v-56h144c4.408,0,8,3.584,8,8V152z M440,200v-24v-8
				c8.824,0,16,7.176,16,16C456,192.824,448.824,200,440,200z M336,16c66.168,0,120,53.832,120,120v20.448
				c-4.728-2.752-10.144-4.448-16-4.448v-8c0-13.232-10.768-24-24-24H272V48h-17.368C276.672,27.576,305.424,16,336,16z M120,24
				c0-4.416,3.592-8,8-8h16c4.408,0,8,3.584,8,8v24h-32V24z M152,480h-32V192h32V480z M16,176V64h240v112H16z M168,416v-67.808
				l5.248-3.632l38.576,38.576L168,416z M480,480h-48v-40h48V480z M480,424h-48v-40h-16v96h-72v-32h-16v32h-96v-99.312
				l-45.376-45.384l37.088-25.672c9.104-6.576,19.432-10.824,30.328-12.624l-7.504,37.512l51.216,8.664L328,409.736V432h16v-22.264
				l30.248-66.552l51.216-8.664l-6.88-34.392C454.152,311.424,480,344.744,480,384V424z"/>
			<path d="M48,96h16v40c0,4.416-3.592,8-8,8s-8-3.584-8-8v-8H32v8c0,13.232,10.768,24,24,24s24-10.768,24-24V96h16V80H48V96z"/>
			<path d="M144,80c-17.648,0-32,14.352-32,32v16c0,17.648,14.352,32,32,32s32-14.352,32-32v-16C176,94.352,161.648,80,144,80z
				 M160,128c0,8.824-7.176,16-16,16c-8.824,0-16-7.176-16-16v-16c0-8.824,7.176-16,16-16c8.824,0,16,7.176,16,16V128z"/>
			<path d="M216,80h-24v80h24c13.232,0,24-10.768,24-24c0-6.144-2.32-11.752-6.128-16c3.808-4.248,6.128-9.856,6.128-16
				C240,90.768,229.232,80,216,80z M216,144h-8v-16h8c4.408,0,8,3.584,8,8S220.408,144,216,144z M216,112h-8V96h8
				c4.408,0,8,3.584,8,8S220.408,112,216,112z"/>
		</g>
  </symbol>

  <symbol id="interview-icon" viewBox="0 0 56 56">
    <title>Interview icon</title>

    <g>
  		<path d="M12,24c3.309,0,6-2.691,6-6s-2.691-6-6-6s-6,2.691-6,6S8.691,24,12,24z M12,14c2.206,0,4,1.794,4,4s-1.794,4-4,4
  			s-4-1.794-4-4S9.794,14,12,14z"/>
  		<path d="M44,24c3.309,0,6-2.691,6-6s-2.691-6-6-6s-6,2.691-6,6S40.691,24,44,24z M44,14c2.206,0,4,1.794,4,4s-1.794,4-4,4
  			s-4-1.794-4-4S41.794,14,44,14z"/>
  		<path d="M54,26v13c0,1.654-1.346,3-3,3V31c0-2.757-2.243-5-5-5h-5c-0.552,0-1,0.448-1,1v4v1v1h-8c-0.552,0-1,0.448-1,1v3h-6v-3
  			c0-0.552-0.448-1-1-1h-8v-1v-1v-4c0-0.552-0.448-1-1-1h-5c-2.757,0-5,2.243-5,5v11c-1.654,0-3-1.346-3-3V26H0v13
  			c0,2.045,1.237,3.802,3,4.576V56h2V44h1h1h8v11c0,0.552,0.448,1,1,1h3h1h1v-1V40v-1h3h8h3v1v15v1h1h1h3c0.552,0,1-0.448,1-1V44h8
  			h1h1v12h2V43.576c1.763-0.774,3-2.531,3-4.576V26H54z M20,37h-2h-6v-6h-2v7c0,0.552,0.448,1,1,1h7c0.551,0,1,0.449,1,1v14h-2V43
  			c0-0.552-0.448-1-1-1H7V31c0-1.654,1.346-3,3-3h4v3v1v2c0,0.552,0.448,1,1,1h8v2H20z M40,42c-0.552,0-1,0.448-1,1v11h-2V40
  			c0-0.551,0.449-1,1-1h7c0.552,0,1-0.448,1-1v-7h-2v6h-6h-2h-3v-2h8c0.552,0,1-0.448,1-1v-2v-1v-3h4c1.654,0,3,1.346,3,3v11H40z"/>
  		<path d="M19,10v3c0,0.431,0.275,0.812,0.684,0.949C19.788,13.983,19.895,14,20,14c0.309,0,0.607-0.144,0.8-0.4l2.7-3.6H31
  			c1.654,0,3-1.346,3-3V3c0-1.654-1.346-3-3-3H19c-1.654,0-3,1.346-3,3v4C16,8.654,17.346,10,19,10z M18,3c0-0.551,0.449-1,1-1h12
  			c0.551,0,1,0.449,1,1v4c0,0.551-0.449,1-1,1h-8c-0.315,0-0.611,0.148-0.8,0.4L21,10V9c0-0.552-0.448-1-1-1h-1
  			c-0.551,0-1-0.449-1-1V3z"/>
  		<rect x="20" y="4" width="10" height="2"/>
  		<rect x="27" y="25" width="6" height="2"/>
  		<path d="M26,21c-1.654,0-3,1.346-3,3v4c0,1.654,1.346,3,3,3h8c1.654,0,3-1.346,3-3v-0.697l1.832-2.748
  			c0.205-0.307,0.224-0.701,0.05-1.026C38.708,23.203,38.369,23,38,23h-1.171c-0.413-1.164-1.525-2-2.829-2H26z M35,24
  			c0,0.552,0.448,1,1,1h0.131l-0.963,1.445C35.059,26.609,35,26.803,35,27v1c0,0.551-0.449,1-1,1h-8c-0.551,0-1-0.449-1-1v-4
  			c0-0.551,0.449-1,1-1h8C34.551,23,35,23.449,35,24z"/>
  		<rect x="23" y="16" width="2" height="2"/>
  		<rect x="27" y="16" width="2" height="2"/>
  		<rect x="31" y="16" width="2" height="2"/>
  	</g>
  </symbol>

  <symbol id="close-popup-icon" viewBox="0 0 212.982 212.982">
    <title>Close popup item</title>

    <g id="Close">
    	<path style="fill-rule:evenodd;clip-rule:evenodd;"
        d="M131.804,106.491l75.936-75.936c6.99-6.99,6.99-18.323,0-25.312   c-6.99-6.99-18.322-6.99-25.312,0l-75.937,75.937L30.554,5.242c-6.99-6.99-18.322-6.99-25.312,0c-6.989,6.99-6.989,18.323,0,25.312   l75.937,75.936L5.242,182.427c-6.989,6.99-6.989,18.323,0,25.312c6.99,6.99,18.322,6.99,25.312,0l75.937-75.937l75.937,75.937   c6.989,6.99,18.322,6.99,25.312,0c6.99-6.99,6.99-18.322,0-25.312L131.804,106.491z" fill="#FFFFFF"/>
    </g>
  </symbol>

  <symbol id="resumes-menu-icon" viewBox="0 0 181.167 181.167">
    <title>Resumes menu icon</title>
    <g>
  		<path d="M148.556,0H32.613c-9.994,0-18.121,8.126-18.121,18.115v144.94c0,9.986,8.126,18.111,18.121,18.111h115.943    c9.992,0,18.118-8.125,18.118-18.111V18.121C166.679,8.131,158.554,0,148.556,0z M159.431,163.055    c0,5.996-4.878,10.871-10.875,10.871H32.613c-5.995,0-10.87-4.875-10.87-10.871V18.121c0-5.995,4.875-10.87,10.87-10.87h115.943    c5.992,0,10.867,4.875,10.867,10.87v144.935H159.431z" fill="#FFFFFF"/>
  		<path d="M128.792,79.212H52.384c-1.839,0-3.324,1.491-3.324,3.33c0,1.838,1.485,3.33,3.324,3.33h76.407    c1.841,0,3.326-1.491,3.326-3.33C132.118,80.704,130.632,79.212,128.792,79.212z" fill="#FFFFFF"/>
  		<path d="M128.792,94.386H52.384c-1.839,0-3.324,1.494-3.324,3.333s1.485,3.326,3.324,3.326h76.407    c1.841,0,3.326-1.487,3.326-3.326C132.113,95.87,130.632,94.386,128.792,94.386z" fill="#FFFFFF"/>
  		<path d="M128.792,109.555H52.384c-1.839,0-3.324,1.494-3.324,3.331c0,1.839,1.485,3.328,3.324,3.328h76.407    c1.841,0,3.326-1.489,3.326-3.328C132.118,111.049,130.632,109.555,128.792,109.555z" fill="#FFFFFF"/>
  		<path d="M128.792,124.728H90.585c-1.836,0-3.328,1.488-3.328,3.327s1.492,3.333,3.328,3.333h38.206    c1.841,0,3.321-1.494,3.321-3.333S130.632,124.728,128.792,124.728z" fill="#FFFFFF"/>
  		<path d="M128.792,154.693h-26.747c-1.845,0-3.326,1.489-3.326,3.328c0,1.837,1.481,3.326,3.326,3.326h26.747    c1.841,0,3.321-1.489,3.321-3.326C132.113,156.182,130.632,154.693,128.792,154.693z" fill="#FFFFFF"/>
  		<path d="M94.296,64.583c0-6.298-7.251-14.793-17.039-17.275c4.089-2.75,6.907-8.181,6.907-13.072    c0-6.898-5.586-12.496-12.49-12.496c-6.896,0-12.49,5.598-12.49,12.496c0,4.886,2.818,10.317,6.898,13.072    c-9.774,2.481-17.03,10.982-17.03,17.275C49.06,72.025,94.296,72.025,94.296,64.583z M70.667,50.933H70.61l-2.068-2.375    c1.011,0.358,2.042,0.577,3.133,0.577c1.093,0,2.125-0.213,3.134-0.572l-2.074,2.369h-0.049l5.337,12.895l-6.348,6.332    l-6.341-6.332L70.667,50.933z" fill="#FFFFFF"/>
  	</g>
  </symbol>

  <symbol id="filter-down-icon" viewBox="0 0 444.819 444.819">
    <title>Filter down icon</title>
    <g>
    	<path d="M434.252,114.203l-21.409-21.416c-7.419-7.04-16.084-10.561-25.975-10.561c-10.095,0-18.657,3.521-25.7,10.561
    		L222.41,231.549L83.653,92.791c-7.042-7.04-15.606-10.561-25.697-10.561c-9.896,0-18.559,3.521-25.979,10.561l-21.128,21.416
    		C3.615,121.436,0,130.099,0,140.188c0,10.277,3.619,18.842,10.848,25.693l185.864,185.865c6.855,7.23,15.416,10.848,25.697,10.848
    		c10.088,0,18.75-3.617,25.977-10.848l185.865-185.865c7.043-7.044,10.567-15.608,10.567-25.693
    		C444.819,130.287,441.295,121.629,434.252,114.203z"/>
    </g>
  </symbol>

  <symbol id="filter-up-icon"  viewBox="0 0 444.819 444.819">
    <g>
    	<path d="M433.968,278.657L248.387,92.79c-7.419-7.044-16.08-10.566-25.977-10.566c-10.088,0-18.652,3.521-25.697,10.566
    		L10.848,278.657C3.615,285.887,0,294.549,0,304.637c0,10.28,3.619,18.843,10.848,25.693l21.411,21.413
    		c6.854,7.23,15.42,10.852,25.697,10.852c10.278,0,18.842-3.621,25.697-10.852L222.41,213.271L361.168,351.74
    		c6.848,7.228,15.413,10.852,25.7,10.852c10.082,0,18.747-3.624,25.975-10.852l21.409-21.412
    		c7.043-7.043,10.567-15.608,10.567-25.693C444.819,294.545,441.205,285.884,433.968,278.657z"/>
    </g>
  </symbol>

  <symbol id="back-icon"  viewBox="0 0 492 492">
    <g>
  		<path d="M464.344,207.418l0.768,0.168H135.888l103.496-103.724c5.068-5.064,7.848-11.924,7.848-19.124
  			c0-7.2-2.78-14.012-7.848-19.088L223.28,49.538c-5.064-5.064-11.812-7.864-19.008-7.864c-7.2,0-13.952,2.78-19.016,7.844
  			L7.844,226.914C2.76,231.998-0.02,238.77,0,245.974c-0.02,7.244,2.76,14.02,7.844,19.096l177.412,177.412
  			c5.064,5.06,11.812,7.844,19.016,7.844c7.196,0,13.944-2.788,19.008-7.844l16.104-16.112c5.068-5.056,7.848-11.808,7.848-19.008
  			c0-7.196-2.78-13.592-7.848-18.652L134.72,284.406h329.992c14.828,0,27.288-12.78,27.288-27.6v-22.788
  			C492,219.198,479.172,207.418,464.344,207.418z"/>
  	</g>
  </symbol>

  <symbol id="cancel-icon"  viewBox="0 0 426.667 426.667">
    <path style="fill:#F05228;" d="M213.333,0C95.514,0,0,95.514,0,213.333s95.514,213.333,213.333,213.333
    	s213.333-95.514,213.333-213.333S331.153,0,213.333,0z M330.995,276.689l-54.302,54.306l-63.36-63.356l-63.36,63.36l-54.302-54.31
    	l63.356-63.356l-63.356-63.36l54.302-54.302l63.36,63.356l63.36-63.356l54.302,54.302l-63.356,63.36L330.995,276.689z"/>
  </symbol>

  <symbol id="filter-icon" viewBox="0 0 512 512">
    <path style="fill:#C7E7EB;" d="M420.221,170.033l-10.322,17.564c-3.676-27.581-14.619-52.892-30.836-73.947l19.925,5.06
    	l28.04-33.769l-48.08-48.08l-33.869,28.123l5.176,19.93c-21.133-16.193-46.524-27.09-74.182-30.676l17.701-10.531L289.722,0h-67.996
    	l-4.063,43.836l17.809,10.466C207.75,57.98,182.318,69,161.193,85.337l5.146-20.268l-33.768-28.04L84.49,85.109l28.123,33.869
    	l20.275-5.266c-16.314,21.203-27.288,46.715-30.876,74.514l-10.677-17.944l-43.705,4.052v67.996l43.836,4.063L102.04,228.4
    	c9.926,76.113,75.184,135.085,153.959,135.085c78.699,0,143.903-58.854,153.929-134.859l10.423,17.519l43.705-4.052v-67.996
    	L420.221,170.033z M256,287.537c-43.739,0-79.323-35.584-79.323-79.323s35.584-79.323,79.323-79.323s79.323,35.584,79.323,79.323
    	S299.739,287.537,256,287.537z"/>
    <path style="fill:#A7CBCF;" d="M256,39.437c93.061,0,168.773,75.711,168.773,168.773S349.061,376.982,256,376.982l-22.503-11.251
    	L256,354.479c80.651,0,146.27-65.608,146.27-146.27c0-80.651-65.619-146.27-146.27-146.27l-22.503-11.252L256,39.437z"/>
    <path style="fill:#B7D9DD;" d="M256,354.479v22.503c-93.061,0-168.773-75.711-168.773-168.773S162.939,39.437,256,39.437V61.94
    	c-80.651,0-146.27,65.619-146.27,146.27C109.73,288.871,175.349,354.479,256,354.479z"/>
    <path style="fill:#88ACB5;" d="M256,309.473l-22.503-16.877L256,275.718c37.22,0,67.509-30.278,67.509-67.509
    	c0-37.22-30.289-67.509-67.509-67.509l-22.503-16.877L256,106.946c55.841,0,101.264,45.434,101.264,101.264
    	C357.264,264.05,311.841,309.473,256,309.473z"/>
    <path style="fill:#A7CBCF;" d="M256,275.718v33.755c-55.841,0-101.264-45.422-101.264-101.264
    	c0-55.83,45.422-101.264,101.264-101.264V140.7c-37.22,0-67.509,30.289-67.509,67.509C188.491,245.44,218.78,275.718,256,275.718z"
    	/>
    <path style="fill:#FF4719;" d="M253.963,376.982L296.179,512h32.956v-84.386c0-5.288,1.98-11.488,5.074-16.877L253.963,376.982z"/>
    <g>
    	<path style="fill:#FF754F;" d="M177.791,410.736l60.589-33.755l60.589,33.755c-1.699,5.389-2.79,11.589-2.79,16.877V512H182.865
    		v-84.386C182.865,422.326,180.885,416.126,177.791,410.736z"/>
    	<path style="fill:#FF754F;" d="M511.972,286.97L342.715,400.711c-3.218,2.374-6.177,5.963-8.506,10.025h-35.24V253.215
    		L511.972,286.97z"/>
    </g>
    <path style="fill:#FF9269;" d="M396.644,286.97l-93.005,113.742c-1.767,2.374-3.387,5.963-4.669,10.025H177.791
    	c-2.329-4.062-5.288-7.651-8.506-10.025L0.028,286.97l198.308-33.755L396.644,286.97z"/>
    <polygon style="fill:#FF4719;" points="511.972,241.964 511.972,286.97 396.644,286.97 374.141,264.467 396.644,241.964 "/>
    <rect x="0.028" y="241.964" style="fill:#FF754F;" width="396.616" height="45.006"/>
  </symbol>
</svg>
