<svg xmlns="http://www.w3.org/2000/svg" style="display:none;">
  <symbol id="search-magnifier" viewBox="0 0 470.007 470.007">
    <title>Search icon</title>
    <g>
    	<g>
    		<path d="M471.882,407.567L360.567,296.243c-16.586,25.795-38.536,47.734-64.331,64.321l111.324,111.324
    			c17.772,17.768,46.587,17.768,64.321,0C489.654,454.149,489.654,425.334,471.882,407.567z"/>
    		<path d="M363.909,181.955C363.909,81.473,282.44,0,181.956,0C81.474,0,0.001,81.473,0.001,181.955s81.473,181.951,181.955,181.951
    			C282.44,363.906,363.909,282.437,363.909,181.955z M181.956,318.416c-75.252,0-136.465-61.208-136.465-136.46
    			c0-75.252,61.213-136.465,136.465-136.465c75.25,0,136.468,61.213,136.468,136.465
    			C318.424,257.208,257.206,318.416,181.956,318.416z"/>
    		<path d="M75.817,181.955h30.322c0-41.803,34.014-75.814,75.816-75.814V75.816C123.438,75.816,75.817,123.437,75.817,181.955z"/>
    	</g>
    </g>
  </symbol>

  <symbol id="company-image-placeholder" viewBox="0 0 470.007 470.007">
    <title>Company image placeholder</title>
    <path style="fill:#757982;" d="M498.071,233.517H347.815c-9.017-1.558-15.248-10.128-13.69-19.255l7.902-47.303l16.695-100.171
    	l8.793-52.868c1.336-8.014,8.348-13.913,16.473-13.913h77.91c8.125,0,15.137,5.899,16.473,13.913l8.793,52.868l16.695,100.171
    	l7.902,47.303C513.319,223.389,507.087,231.959,498.071,233.517z"/>
    <g>
    	<polygon style="fill:#B8BFCC;" points="503.858,166.959 342.027,166.959 347.592,133.569 498.293,133.569 	"/>
    	<polygon style="fill:#B8BFCC;" points="492.728,100.179 353.157,100.179 358.722,66.789 487.163,66.789 	"/>
    </g>
    <path style="fill:#A1A7B3;" d="M495.288,200.35H324.108l-68.116-68.116l-27.156-27.156c-10.463-10.462-28.494-3.005-28.494,11.798
    	v59.88l-71.677-71.678c-10.463-10.462-28.494-3.116-28.494,11.798v59.88l-71.677-71.678C18.031,94.614,0,102.071,0,116.874V311.65
    	h255.992h255.992v-94.606C511.983,207.807,504.527,200.35,495.288,200.35z"/>
    <path style="fill:#979CA7;" d="M495.288,200.35H324.108l-68.116-68.116v179.418h255.992v-94.606
    	C511.983,207.807,504.527,200.35,495.288,200.35z"/>
    <path style="fill:#C4CAD9;" d="M0,278.26v217.036c0,9.222,7.478,16.695,16.695,16.695h478.593c9.217,0,16.695-7.473,16.695-16.695
    	V278.26H0L0,278.26z"/>
    <path style="fill:#B8BFCC;" d="M255.992,511.991h239.297c9.217,0,16.695-7.473,16.695-16.695V278.26H255.992V511.991z"/>
    <path style="fill:#7F838C;" d="M329.673,44.528c-21.036,23.596-49.863,27.936-73.681,14.469c-6.457-3.45-12.577-8.348-18.031-14.469
    	c-13.246-14.469-28.827-14.58-41.849,0c-6.12,6.901-16.695,7.457-23.596,1.336c-6.901-6.233-7.456-16.695-1.336-23.596
    	c24.376-27.38,59.435-28.827,84.811-6.678c2.449,1.892,4.674,4.229,6.901,6.678c13.246,14.469,28.827,14.58,41.849,0
    	c6.12-6.901,16.695-7.457,23.596-1.336C335.238,27.166,335.793,37.628,329.673,44.528z"/>
    <path style="fill:#626873;" d="M445.203,511.991H333.902V361.736c0-9.22,7.475-16.695,16.695-16.695h77.911
    	c9.22,0,16.695,7.475,16.695,16.695V511.991z"/>
    <path style="fill:#7F838C;" d="M150.256,445.211h-66.78c-9.217,0-16.695-7.473-16.695-16.695v-66.78
    	c0-9.222,7.478-16.695,16.695-16.695h66.78c9.217,0,16.695,7.473,16.695,16.695v66.78
    	C166.951,437.738,159.473,445.211,150.256,445.211z"/>
    <path style="fill:#57DEFF;" d="M100.171,411.821h33.39v-33.39h-33.39V411.821z"/>
    <path style="fill:#7F838C;" d="M283.817,445.211h-66.78c-9.217,0-16.695-7.473-16.695-16.695v-66.78
    	c0-9.222,7.478-16.695,16.695-16.695h66.78c9.217,0,16.695,7.473,16.695,16.695v66.78
    	C300.512,437.738,293.034,445.211,283.817,445.211z"/>
    <path style="fill:#757982;" d="M283.817,345.04h-27.825v100.171h27.825c9.217,0,16.695-7.473,16.695-16.695v-66.78
    	C300.512,352.513,293.034,345.04,283.817,345.04z"/>
    <path style="fill:#57DEFF;" d="M233.732,411.821h33.39v-33.39h-33.39V411.821z"/>
    <rect x="255.992" y="378.434" style="fill:#4EC9E6;" width="11.13" height="33.39"/>
    <path style="fill:#757982;" d="M329.673,44.528c-21.036,23.596-49.863,27.936-73.681,14.469V15.59
    	c2.449,1.892,4.674,4.229,6.901,6.678c13.246,14.469,28.827,14.58,41.849,0c6.12-6.901,16.695-7.457,23.596-1.336
    	C335.238,27.166,335.793,37.628,329.673,44.528z"/>
  </symbol>

  <symbol id="plus-icon" viewBox="0 0 470.007 470.007">
    <title>Plus icon</title>
    <g>
    	<path d="M394,154.175c-5.331-5.33-11.806-7.994-19.417-7.994H255.811V27.406c0-7.611-2.666-14.084-7.994-19.414
    		C242.488,2.666,236.02,0,228.398,0h-54.812c-7.612,0-14.084,2.663-19.414,7.993c-5.33,5.33-7.994,11.803-7.994,19.414v118.775
    		H27.407c-7.611,0-14.084,2.664-19.414,7.994S0,165.973,0,173.589v54.819c0,7.618,2.662,14.086,7.992,19.411
    		c5.33,5.332,11.803,7.994,19.414,7.994h118.771V374.59c0,7.611,2.664,14.089,7.994,19.417c5.33,5.325,11.802,7.987,19.414,7.987
    		h54.816c7.617,0,14.086-2.662,19.417-7.987c5.332-5.331,7.994-11.806,7.994-19.417V255.813h118.77
    		c7.618,0,14.089-2.662,19.417-7.994c5.329-5.325,7.994-11.793,7.994-19.411v-54.819C401.991,165.973,399.332,159.502,394,154.175z"
    		/>
    </g>
  </symbol>
  <symbol id="company-icon" viewBox="0 0 204 204">
    <title>Company navigation ment</title>
    <g>
    	<path d="M89,89h25v31h51V14h-16V0H55v14H39v106h50V89z M126,29h24v16h-24V29z M126,59h24v16h-24V59z M126,89h24v16h-24V89z M89,29   h25v16H89V29z M89,59h25v16H89V59z M77,105H53V89h24V105z M77,75H53V59h24V75z M77,45H53V29h24V45z" fill="#FFFFFF"/>
    	<polygon points="164,174 164,153 164,135 164,134 40,134 40,135 40,153 40,174 29,174 29,204 70,204 70,174 59,174 59,153    60.083,153 145,153 145,174 134,174 134,204 175,204 175,174  " fill="#FFFFFF"/>
    </g>
  </symbol>

  <symbol id="employees-number-icon" viewBox="0 0 512 512">
    <title>Employees number</title>
    <g>
			<circle cx="256.001" cy="232.132" r="10.689"/>
			<circle cx="256.001" cy="268.111" r="10.689"/>
			<path d="M423.565,112.31c5.87-8.252,9.338-18.327,9.338-29.203V50.505C432.903,22.656,410.247,0,382.398,0h-6.948
				c-27.849,0-50.505,22.656-50.505,50.505v32.601c0,10.843,3.446,20.889,9.284,29.127h-33.534
				c5.838-8.238,9.285-18.284,9.285-29.127V50.505C309.98,22.656,287.324,0,259.475,0h-6.948c-27.849,0-50.505,22.656-50.505,50.505
				v32.601c0,10.843,3.447,20.889,9.287,29.127h-33.534c5.837-8.238,9.283-18.284,9.283-29.127V50.505
				C187.057,22.656,164.401,0,136.552,0h-6.948c-27.849,0-50.505,22.656-50.505,50.505v32.601c0,10.876,3.467,20.951,9.338,29.203
				c-37.537,1.572-67.593,32.454-67.593,70.204v104.217c0,21.66,17.689,39.282,39.434,39.282c0.219,0,0.434-0.019,0.65-0.033
				v150.391c0,19.646,15.983,35.629,35.629,35.629h11.579c9.701,0,18.509-3.897,24.94-10.208c6.432,6.311,15.24,10.208,24.94,10.208
				h11.579c9.703,0,18.498-3.914,24.93-10.228c6.433,6.32,15.243,10.228,24.952,10.228h11.579c9.701,0,18.509-3.897,24.94-10.208
				c6.432,6.311,15.24,10.208,24.941,10.208h11.58c9.709,0,18.52-3.908,24.952-10.228c6.43,6.314,15.225,10.228,24.929,10.228h11.58
				c9.7,0,18.509-3.897,24.94-10.208c6.432,6.311,15.24,10.208,24.941,10.208h11.58c19.646,0,35.629-15.983,35.629-35.629V325.979
				c0.216,0.013,0.431,0.033,0.65,0.033c21.743,0,39.434-17.622,39.434-39.282V182.514
				C491.158,144.763,461.102,113.882,423.565,112.31z M346.323,50.505c0-16.061,13.067-29.127,29.127-29.127h6.948
				c16.06,0,29.127,13.066,29.127,29.127v32.601c0,16.061-13.067,29.127-29.127,29.127h-6.948c-16.06,0-29.127-13.066-29.127-29.127
				V50.505z M223.4,50.505c0-16.061,13.066-29.127,29.127-29.127h6.948c16.06,0,29.127,13.066,29.127,29.127v32.601
				c0,16.061-13.067,29.127-29.127,29.127h-6.948c-16.061,0-29.127-13.066-29.127-29.127V50.505z M280.722,133.612l-24.721,40.565
				l-24.721-40.565H280.722z M100.477,50.505c0-16.061,13.066-29.127,29.127-29.127h6.948c16.061,0,29.127,13.066,29.127,29.127
				v32.601c0,16.061-13.066,29.127-29.127,29.127h-6.948c-16.061,0-29.127-13.066-29.127-29.127V50.505z M71.617,207.9
				c-5.904,0-10.689,4.785-10.689,10.689v0.003v86.075c-0.216-0.013-0.431-0.033-0.65-0.033c-9.956,0-18.056-8.032-18.056-17.904
				V182.513c0-26.965,22.079-48.902,49.217-48.902h72.284c-12.341,12.659-19.955,29.909-19.955,48.902V286.73
				c0,3.46,0.456,6.815,1.303,10.014l-11.971,6.062l-50.795-25.833v-58.38v-0.004C82.306,212.685,77.52,207.9,71.617,207.9z
				 M183.851,476.37c0,7.86-6.393,14.253-14.252,14.253H158.02c-7.858,0-14.252-6.393-14.252-14.252v-117.49
				c0-5.904-4.785-10.689-10.689-10.689c-5.903,0-10.689,4.785-10.689,10.689v117.49c0,7.859-6.393,14.252-14.252,14.252H96.557
				c-7.858,0-14.252-6.393-14.252-14.252V300.957l45.938,23.364c1.522,0.774,3.184,1.161,4.845,1.161
				c1.655,0,3.31-0.384,4.829-1.153l18.111-9.171c7.079,6.717,16.646,10.855,27.171,10.855c0.219,0,0.434-0.019,0.65-0.033V476.37z
				 M306.773,476.371c0,7.859-6.393,14.252-14.252,14.252h-11.58c-7.859,0-14.252-6.393-14.252-14.252v-117.49
				c0-5.904-4.786-10.689-10.689-10.689c-5.904,0-10.689,4.785-10.689,10.689v117.49c0,7.859-6.393,14.252-14.252,14.252h-11.579
				c-7.859,0-14.252-6.393-14.252-14.252v-175.3l45.934,23.258c1.519,0.768,3.174,1.153,4.829,1.153
				c1.662,0,3.323-0.387,4.845-1.161l45.936-23.365V476.371z M317.462,207.9c-5.902,0-10.689,4.785-10.689,10.689v0.003v58.38
				l-50.794,25.834l-50.751-25.697v-58.517v-0.003c0-5.904-4.785-10.689-10.689-10.689s-10.689,4.785-10.689,10.689v0.003v86.075
				c-0.216-0.013-0.431-0.033-0.65-0.033c-9.956,0-18.056-8.032-18.056-17.904V182.513c0-24.346,18.001-44.588,41.472-48.292
				l40.257,66.058c1.94,3.184,5.399,5.126,9.127,5.126s7.187-1.942,9.127-5.126l40.257-66.058
				c23.471,3.703,41.472,23.945,41.472,48.292V286.73c0,9.872-8.099,17.904-18.056,17.904c-0.219,0-0.434,0.019-0.65,0.033v-86.075
				v-0.003C328.151,212.685,323.365,207.9,317.462,207.9z M429.696,476.371c0,7.859-6.393,14.252-14.252,14.252h-11.58
				c-7.859,0-14.252-6.393-14.252-14.252v-117.49c0-5.904-4.786-10.689-10.689-10.689c-5.902,0-10.689,4.785-10.689,10.689v117.49
				c0,7.859-6.393,14.252-14.252,14.252h-11.58c-7.859,0-14.252-6.393-14.252-14.252V325.979c0.216,0.013,0.431,0.033,0.65,0.033
				c10.525,0,20.092-4.137,27.171-10.855l18.111,9.171c1.519,0.768,3.174,1.153,4.829,1.153c1.662,0,3.323-0.387,4.845-1.161
				l45.938-23.365V476.371z M451.724,304.635c-0.219,0-0.434,0.019-0.65,0.033v-86.075v-0.004c0-5.904-4.786-10.689-10.689-10.689
				c-5.902,0-10.689,4.785-10.689,10.689v0.003v58.38l-50.794,25.834l-11.972-6.062c0.848-3.198,1.303-6.554,1.303-10.014V182.513
				c0-18.993-7.615-36.243-19.956-48.902h72.284c27.139,0,49.217,21.937,49.217,48.902v104.218h0.001
				C469.78,296.603,461.681,304.635,451.724,304.635z"/>
		</g>
  </symbol>

  <symbol id="vacancies-number-icon" viewBox="0 0 470.586 470.586">
    <title>Vacancies number icon</title>
    <g>
    	<path d="M327.081,0H90.234C74.331,0,61.381,12.959,61.381,28.859v412.863c0,15.924,12.95,28.863,28.853,28.863H380.35
    		c15.917,0,28.855-12.939,28.855-28.863V89.234L327.081,0z M333.891,43.184l35.996,39.121h-35.996V43.184z M384.972,441.723
    		c0,2.542-2.081,4.629-4.635,4.629H90.234c-2.55,0-4.619-2.087-4.619-4.629V28.859c0-2.548,2.069-4.613,4.619-4.613h219.411v70.181
    		c0,6.682,5.443,12.099,12.129,12.099h63.198V441.723z M128.364,128.89H334.15c5.013,0,9.079,4.066,9.079,9.079
    		c0,5.013-4.066,9.079-9.079,9.079H128.364c-5.012,0-9.079-4.066-9.079-9.079C119.285,132.957,123.352,128.89,128.364,128.89z
    		 M343.229,198.98c0,5.012-4.066,9.079-9.079,9.079H128.364c-5.012,0-9.079-4.066-9.079-9.079s4.067-9.079,9.079-9.079H334.15
    		C339.163,189.901,343.229,193.968,343.229,198.98z M343.229,257.993c0,5.013-4.066,9.079-9.079,9.079H128.364
    		c-5.012,0-9.079-4.066-9.079-9.079s4.067-9.079,9.079-9.079H334.15C339.163,248.914,343.229,252.98,343.229,257.993z
    		 M343.229,318.011c0,5.013-4.066,9.079-9.079,9.079H128.364c-5.012,0-9.079-4.066-9.079-9.079s4.067-9.079,9.079-9.079H334.15
    		C339.163,308.932,343.229,312.998,343.229,318.011z"/>
    </g>
  </symbol>

  <symbol id="edit-icon" viewBox="0 0 53.255 53.255">
    <title>Color edit icon</title>
    <path style="fill:#D75A4A;" d="M39.598,2.343c3.124-3.124,8.19-3.124,11.314,0s3.124,8.19,0,11.314L39.598,2.343z"/>
    <polygon style="fill:#ED8A19;" points="42.426,17.899 16.512,43.814 15.982,48.587 44.548,20.02 44.548,20.02 "/>
    <polygon style="fill:#ED8A19;" points="10.325,42.93 15.098,42.4 41.012,16.485 36.77,12.243 10.855,38.157 "/>
    <polygon style="fill:#ED8A19;" points="35.356,10.829 33.234,8.707 33.234,8.707 4.668,37.273 9.441,36.743 "/>
    <polygon style="fill:#C7CAC7;" points="48.79,15.778 48.79,15.778 50.912,13.657 39.598,2.343 37.476,4.465 37.477,4.465 "/>
    <polygon style="fill:#C7CAC7;" points="36.062,5.879 36.062,5.879 34.648,7.293 34.648,7.293 45.962,18.606 45.962,18.606
    	47.376,17.192 47.376,17.192 "/>
    <path style="fill:#FBCE9D;" d="M14.424,44.488l-5.122,0.569c-0.036,0.004-0.073,0.006-0.109,0.006c0,0-0.001,0-0.001,0H9.192H9.192
    	c-0.001,0-0.001,0-0.001,0c-0.036,0-0.073-0.002-0.109-0.006c-0.039-0.004-0.071-0.026-0.108-0.035
    	c-0.072-0.017-0.141-0.035-0.207-0.067c-0.05-0.024-0.093-0.053-0.138-0.084c-0.057-0.04-0.109-0.083-0.157-0.134
    	c-0.038-0.04-0.069-0.081-0.1-0.127c-0.038-0.057-0.069-0.116-0.095-0.181c-0.022-0.054-0.038-0.107-0.05-0.165
    	c-0.007-0.032-0.024-0.059-0.028-0.092c-0.004-0.038,0.01-0.073,0.01-0.11c0-0.038-0.014-0.072-0.01-0.11l0.569-5.122l-5.122,0.569
    	c-0.037,0.004-0.075,0.006-0.111,0.006c-0.079,0-0.152-0.024-0.227-0.042L0.442,51.399l2.106-2.106c0.391-0.391,1.023-0.391,1.414,0
    	s0.391,1.023,0,1.414l-2.106,2.106l12.03-2.864c-0.026-0.109-0.043-0.222-0.03-0.339L14.424,44.488z"/>
    <path style="fill:#38454F;" d="M3.962,49.293c-0.391-0.391-1.023-0.391-1.414,0l-2.106,2.106L0,53.255l1.856-0.442l2.106-2.106
    	C4.352,50.316,4.352,49.684,3.962,49.293z"/>
    <polygon style="fill:#F2ECBF;" points="48.79,15.778 37.477,4.465 37.476,4.465 36.062,5.879 36.062,5.879 47.376,17.192
    	47.376,17.192 48.79,15.778 "/>
    <path style="fill:#EBBA16;" d="M41.012,16.485L15.098,42.4l-4.773,0.53l0.53-4.773L36.77,12.243l-1.414-1.414L9.441,36.743
    	l-4.773,0.53l-1.133,1.133l-0.228,0.957c0.075,0.018,0.147,0.042,0.227,0.042c0.036,0,0.074-0.002,0.111-0.006l5.122-0.569
    	l-0.569,5.122c-0.004,0.038,0.01,0.073,0.01,0.11c0,0.038-0.014,0.072-0.01,0.11c0.004,0.033,0.021,0.06,0.028,0.092
    	c0.012,0.057,0.029,0.112,0.05,0.165c0.026,0.064,0.057,0.124,0.095,0.181c0.03,0.045,0.063,0.088,0.1,0.127
    	c0.047,0.05,0.1,0.094,0.157,0.134c0.044,0.031,0.089,0.061,0.138,0.084c0.065,0.031,0.135,0.05,0.207,0.067
    	c0.038,0.009,0.069,0.03,0.108,0.035c0.036,0.004,0.072,0.006,0.109,0.006h0.001h0h0.001h0.001c0,0,0.001,0,0.001,0h0
    	c0.035,0,0.072-0.002,0.109-0.006l5.122-0.569l-0.569,5.122c-0.013,0.118,0.004,0.23,0.03,0.339l0.963-0.229l1.133-1.132l0.53-4.773
    	l25.914-25.915L41.012,16.485z"/>
    <polygon style="fill:#F2ECBF;" points="45.962,18.606 34.648,7.293 34.648,7.293 33.234,8.707 33.234,8.707 35.356,10.829
    	36.77,12.243 41.012,16.485 42.426,17.899 44.548,20.02 44.548,20.02 45.962,18.606 "/>
  </symbol>

  <symbol id="delete-icon" viewBox="0 0 512 512">
    <title>Color delete icon</title>

    <polygon style="fill:#E21B1B;" points="404.176,0 256,148.176 107.824,0 0,107.824 148.176,256 0,404.176 107.824,512 256,363.824
    	404.176,512 512,404.176 363.824,256 512,107.824 "/>
  </symbol>

  <symbol id="vacany-empty-icon" viewBox="0 0 284.26 284.259">
    <title>Empty vacancy icon</title>

    <g>
  		<path d="M0,212.531c0,12.898,10.499,23.399,23.399,23.399H260.86c12.903,0,23.399-10.501,23.399-23.399v-80.191
  			c0-12.9-10.496-23.399-23.399-23.399h-7.937V48.33h-15.6l0,0v60.61H46.938V48.33l0,0h-15.6v60.61h-7.939
  			C10.499,108.94,0,119.439,0,132.339V212.531z M15.6,132.339c0-4.301,3.499-7.8,7.8-7.8h7.939h221.575h7.942
  			c4.301,0,7.8,3.499,7.8,7.8v80.191c0,4.301-3.499,7.8-7.8,7.8H23.399c-4.301,0-7.8-3.499-7.8-7.8V132.339z"/>
  		<path d="M25.74,187.111h2.968c1.29,0,2.341-1.052,2.341-2.342v-12.481l7.612,13.269c0.515,0.904,1.643,1.555,2.688,1.555h3.339
  			c1.287,0,2.338-1.047,2.338-2.336v-23.856c0-1.29-1.051-2.336-2.338-2.336h-2.971c-1.29,0-2.338,1.046-2.338,2.336v12.136
  			l-7.348-12.902c-0.51-0.909-1.638-1.569-2.689-1.569H25.74c-1.29,0-2.341,1.046-2.341,2.336v23.856
  			C23.399,186.059,24.45,187.111,25.74,187.111z"/>
  		<path d="M62.284,187.832c4.06,0,7.234-1.158,9.392-3.382c2.875-2.712,4.332-6.632,4.332-11.639c0-5.104-1.462-9.028-4.291-11.599
  			c-2.198-2.274-5.372-3.422-9.432-3.422c-4.062,0-7.233,1.157-9.372,3.361c-2.899,2.631-4.367,6.551-4.367,11.659
  			c0,5.012,1.467,8.927,4.311,11.598C55.05,186.673,58.221,187.832,62.284,187.832z M56.528,172.8c0-2.6,0.546-4.59,1.627-5.936
  			c1.028-1.274,2.382-1.895,4.128-1.895c1.742,0,3.077,0.62,4.093,1.895c1.072,1.346,1.612,3.346,1.612,5.936
  			c0,2.61-0.541,4.616-1.607,5.957c-1.016,1.265-2.352,1.884-4.098,1.884c-1.45,0-2.61-0.416-3.552-1.279
  			c-0.322-0.295-0.82-0.914-1.056-1.311C56.911,176.756,56.528,174.984,56.528,172.8z"/>
  		<path d="M94.133,185.247c0.363,1.062,1.483,1.864,2.605,1.864h3.037c1.122,0,2.247-0.803,2.605-1.864l8.168-23.963
  			c0.226-0.66,0.137-1.351-0.239-1.868c-0.373-0.528-0.993-0.833-1.693-0.833h-3.552c-1.15,0-2.257,0.833-2.58,1.935l-4.139,14.34
  			l-4.103-14.33c-0.317-1.106-1.419-1.944-2.575-1.944H87.96c-0.696,0-1.315,0.305-1.696,0.827
  			c-0.378,0.528-0.467,1.214-0.244,1.874L94.133,185.247z"/>
  		<path d="M107.737,186.273c0.373,0.533,0.993,0.838,1.693,0.838h3.587c1.13,0,2.247-0.808,2.6-1.879l1.239-3.453l7.592,0.091
  			l1.077,3.352c0.343,1.082,1.46,1.89,2.6,1.89h3.795c0.701,0,1.32-0.305,1.699-0.833c0.376-0.538,0.455-1.214,0.218-1.874
  			l-8.48-23.973c-0.378-1.066-1.476-1.844-2.61-1.844h-4.05c-1.114,0-2.236,0.787-2.61,1.844l-8.559,23.973
  			C107.277,185.059,107.361,185.75,107.737,186.273z M119.086,174.71l1.551-4.703l1.513,4.703H119.086z"/>
  		<path d="M146.997,187.832c3.311,0,6.073-1.006,8.227-3.001c1.854-1.727,3.112-3.92,3.737-6.53
  			c0.152-0.645,0.015-1.305-0.381-1.812c-0.406-0.519-1.036-0.808-1.722-0.808h-3.301c-1.117,0-2.193,0.787-2.569,1.863
  			c-0.254,0.716-0.528,1.26-0.838,1.635c-0.726,0.925-1.777,1.371-3.229,1.371c-1.409,0-2.547-0.548-3.474-1.686
  			c-0.977-1.208-1.475-3.138-1.475-5.728c0-2.626,0.482-4.652,1.435-6.003c0.873-1.249,1.985-1.827,3.504-1.827
  			c1.513,0,2.595,0.406,3.306,1.229c0.284,0.335,0.543,0.822,0.776,1.442c0.401,1.056,1.483,1.833,2.575,1.833h3.341
  			c0.681,0,1.32-0.3,1.747-0.808c0.401-0.487,0.568-1.133,0.446-1.757c-0.264-1.452-0.883-2.904-1.868-4.316
  			c-2.234-3.22-5.784-4.854-10.532-4.854c-3.572,0-6.565,1.208-8.901,3.59c-2.635,2.696-3.974,6.525-3.974,11.38
  			c0,4.489,1.176,8.109,3.496,10.745C139.677,186.476,142.938,187.832,146.997,187.832z"/>
  		<path d="M161.479,187.111h3.585c1.127,0,2.244-0.808,2.6-1.879l1.239-3.453l7.587,0.091l1.076,3.352
  			c0.346,1.082,1.463,1.89,2.6,1.89h3.794c0.705,0,1.314-0.305,1.695-0.828c0.371-0.533,0.457-1.214,0.224-1.879l-8.479-23.973
  			c-0.371-1.047-1.493-1.844-2.615-1.844h-4.048c-1.112,0-2.239,0.787-2.609,1.844l-8.557,23.968
  			c-0.244,0.665-0.163,1.351,0.213,1.884C160.164,186.816,160.773,187.111,161.479,187.111z M171.138,174.71l1.549-4.697
  			l1.508,4.697H171.138z"/>
  		<path d="M189.256,187.111h2.966c1.29,0,2.341-1.052,2.341-2.342v-12.481l7.612,13.279c0.518,0.894,1.65,1.544,2.691,1.544h3.336
  			c1.289,0,2.341-1.047,2.341-2.336v-23.856c0-1.29-1.052-2.336-2.341-2.336h-2.971c-1.29,0-2.336,1.046-2.336,2.336v12.136
  			l-7.354-12.908c-0.513-0.903-1.64-1.563-2.686-1.563h-3.601c-1.29,0-2.346,1.046-2.346,2.336v23.856
  			C186.91,186.059,187.966,187.111,189.256,187.111z"/>
  		<path d="M225.076,187.832c3.306,0,6.073-1.006,8.221-3.001c1.864-1.727,3.118-3.926,3.737-6.535
  			c0.147-0.646,0.011-1.306-0.381-1.808c-0.406-0.519-1.035-0.808-1.716-0.808h-3.311c-1.112,0-2.194,0.787-2.569,1.863
  			c-0.249,0.711-0.523,1.249-0.833,1.635c-0.727,0.925-1.782,1.371-3.229,1.371c-1.412,0-2.55-0.548-3.474-1.686
  			c-0.975-1.208-1.473-3.138-1.473-5.728c0-2.626,0.482-4.652,1.432-6.003c0.874-1.249,1.991-1.827,3.504-1.827
  			c1.514,0,2.59,0.406,3.301,1.229c0.284,0.335,0.549,0.822,0.777,1.432c0.396,1.066,1.482,1.844,2.579,1.844h3.347
  			c0.681,0,1.31-0.3,1.736-0.803c0.406-0.487,0.569-1.132,0.457-1.767c-0.264-1.447-0.894-2.899-1.863-4.312
  			c-2.239-3.22-5.784-4.854-10.537-4.854c-3.569,0-6.565,1.208-8.896,3.59c-2.641,2.696-3.976,6.525-3.976,11.38
  			c0,4.489,1.173,8.109,3.488,10.745C217.749,186.476,221.009,187.832,225.076,187.832z"/>
  		<path d="M245.561,175.807c0.168,0.314,0.341,0.97,0.341,1.32v7.647c0,1.289,1.051,2.336,2.341,2.336h3.336
  			c1.29,0,2.341-1.047,2.341-2.336v-7.647c0-0.355,0.162-1.016,0.335-1.341l7.698-14.386c0.346-0.655,0.346-1.356,0.005-1.93
  			c-0.34-0.563-0.97-0.894-1.706-0.894h-4.057c-1.087,0-2.204,0.716-2.661,1.706l-3.565,7.81l-3.737-7.846
  			c-0.456-0.97-1.584-1.67-2.66-1.67h-4.307c-0.751,0-1.371,0.33-1.716,0.908c-0.336,0.574-0.32,1.28,0.04,1.93L245.561,175.807z"/>
  	</g>
  </symbol>

  <symbol id="user-placeholder" viewBox="0 0 482.9 482.9">
    <title>User placeholder icon</title>

    <g>
  		<path d="M239.7,260.2c0.5,0,1,0,1.6,0c0.2,0,0.4,0,0.6,0c0.3,0,0.7,0,1,0c29.3-0.5,53-10.8,70.5-30.5
  			c38.5-43.4,32.1-117.8,31.4-124.9c-2.5-53.3-27.7-78.8-48.5-90.7C280.8,5.2,262.7,0.4,242.5,0h-0.7c-0.1,0-0.3,0-0.4,0h-0.6
  			c-11.1,0-32.9,1.8-53.8,13.7c-21,11.9-46.6,37.4-49.1,91.1c-0.7,7.1-7.1,81.5,31.4,124.9C186.7,249.4,210.4,259.7,239.7,260.2z
  			 M164.6,107.3c0-0.3,0.1-0.6,0.1-0.8c3.3-71.7,54.2-79.4,76-79.4h0.4c0.2,0,0.5,0,0.8,0c27,0.6,72.9,11.6,76,79.4
  			c0,0.3,0,0.6,0.1,0.8c0.1,0.7,7.1,68.7-24.7,104.5c-12.6,14.2-29.4,21.2-51.5,21.4c-0.2,0-0.3,0-0.5,0l0,0c-0.2,0-0.3,0-0.5,0
  			c-22-0.2-38.9-7.2-51.4-21.4C157.7,176.2,164.5,107.9,164.6,107.3z"/>
  		<path d="M446.8,383.6c0-0.1,0-0.2,0-0.3c0-0.8-0.1-1.6-0.1-2.5c-0.6-19.8-1.9-66.1-45.3-80.9c-0.3-0.1-0.7-0.2-1-0.3
  			c-45.1-11.5-82.6-37.5-83-37.8c-6.1-4.3-14.5-2.8-18.8,3.3c-4.3,6.1-2.8,14.5,3.3,18.8c1.7,1.2,41.5,28.9,91.3,41.7
  			c23.3,8.3,25.9,33.2,26.6,56c0,0.9,0,1.7,0.1,2.5c0.1,9-0.5,22.9-2.1,30.9c-16.2,9.2-79.7,41-176.3,41
  			c-96.2,0-160.1-31.9-176.4-41.1c-1.6-8-2.3-21.9-2.1-30.9c0-0.8,0.1-1.6,0.1-2.5c0.7-22.8,3.3-47.7,26.6-56
  			c49.8-12.8,89.6-40.6,91.3-41.7c6.1-4.3,7.6-12.7,3.3-18.8c-4.3-6.1-12.7-7.6-18.8-3.3c-0.4,0.3-37.7,26.3-83,37.8
  			c-0.4,0.1-0.7,0.2-1,0.3c-43.4,14.9-44.7,61.2-45.3,80.9c0,0.9,0,1.7-0.1,2.5c0,0.1,0,0.2,0,0.3c-0.1,5.2-0.2,31.9,5.1,45.3
  			c1,2.6,2.8,4.8,5.2,6.3c3,2,74.9,47.8,195.2,47.8s192.2-45.9,195.2-47.8c2.3-1.5,4.2-3.7,5.2-6.3
  			C447,415.5,446.9,388.8,446.8,383.6z"/>
  	</g>
  </symbol>

  <symbol id="calendar-icon" viewBox="0 0 60 60">
    <title>Search icon</title>
    <g>
    	<path d="M57,4h-7V1c0-0.553-0.447-1-1-1h-7c-0.553,0-1,0.447-1,1v3H19V1c0-0.553-0.447-1-1-1h-7c-0.553,0-1,0.447-1,1v3H3
    		C2.447,4,2,4.447,2,5v11v43c0,0.553,0.447,1,1,1h54c0.553,0,1-0.447,1-1V16V5C58,4.447,57.553,4,57,4z M43,2h5v3v3h-5V5V2z M12,2h5
    		v3v3h-5V5V2z M4,6h6v3c0,0.553,0.447,1,1,1h7c0.553,0,1-0.447,1-1V6h22v3c0,0.553,0.447,1,1,1h7c0.553,0,1-0.447,1-1V6h6v9H4V6z
    		 M4,58V17h52v41H4z"/>
    	<path d="M38,23h-7h-2h-7h-2h-9v9v2v7v2v9h9h2h7h2h7h2h9v-9v-2v-7v-2v-9h-9H38z M31,25h7v7h-7V25z M38,41h-7v-7h7V41z M22,34h7v7h-7
    		V34z M22,25h7v7h-7V25z M13,25h7v7h-7V25z M13,34h7v7h-7V34z M20,50h-7v-7h7V50z M29,50h-7v-7h7V50z M38,50h-7v-7h7V50z M47,50h-7
    		v-7h7V50z M47,41h-7v-7h7V41z M47,25v7h-7v-7H47z"/>
    </g>
  </symbol>
</svg>
