<svg xmlns="http://www.w3.org/2000/svg" style="display:none;">
  <symbol id="search-magnifier" viewBox="0 0 470.007 470.007">
    <title>Search icon</title>
    <g>
    	<g>
    		<path d="M471.882,407.567L360.567,296.243c-16.586,25.795-38.536,47.734-64.331,64.321l111.324,111.324
    			c17.772,17.768,46.587,17.768,64.321,0C489.654,454.149,489.654,425.334,471.882,407.567z"/>
    		<path d="M363.909,181.955C363.909,81.473,282.44,0,181.956,0C81.474,0,0.001,81.473,0.001,181.955s81.473,181.951,181.955,181.951
    			C282.44,363.906,363.909,282.437,363.909,181.955z M181.956,318.416c-75.252,0-136.465-61.208-136.465-136.46
    			c0-75.252,61.213-136.465,136.465-136.465c75.25,0,136.468,61.213,136.468,136.465
    			C318.424,257.208,257.206,318.416,181.956,318.416z"/>
    		<path d="M75.817,181.955h30.322c0-41.803,34.014-75.814,75.816-75.814V75.816C123.438,75.816,75.817,123.437,75.817,181.955z"/>
    	</g>
    </g>
  </symbol>

  <symbol id="company-image-placeholder" viewBox="0 0 470.007 470.007">
    <title>Company image placeholder</title>
    <path style="fill:#757982;" d="M498.071,233.517H347.815c-9.017-1.558-15.248-10.128-13.69-19.255l7.902-47.303l16.695-100.171
    	l8.793-52.868c1.336-8.014,8.348-13.913,16.473-13.913h77.91c8.125,0,15.137,5.899,16.473,13.913l8.793,52.868l16.695,100.171
    	l7.902,47.303C513.319,223.389,507.087,231.959,498.071,233.517z"/>
    <g>
    	<polygon style="fill:#B8BFCC;" points="503.858,166.959 342.027,166.959 347.592,133.569 498.293,133.569 	"/>
    	<polygon style="fill:#B8BFCC;" points="492.728,100.179 353.157,100.179 358.722,66.789 487.163,66.789 	"/>
    </g>
    <path style="fill:#A1A7B3;" d="M495.288,200.35H324.108l-68.116-68.116l-27.156-27.156c-10.463-10.462-28.494-3.005-28.494,11.798
    	v59.88l-71.677-71.678c-10.463-10.462-28.494-3.116-28.494,11.798v59.88l-71.677-71.678C18.031,94.614,0,102.071,0,116.874V311.65
    	h255.992h255.992v-94.606C511.983,207.807,504.527,200.35,495.288,200.35z"/>
    <path style="fill:#979CA7;" d="M495.288,200.35H324.108l-68.116-68.116v179.418h255.992v-94.606
    	C511.983,207.807,504.527,200.35,495.288,200.35z"/>
    <path style="fill:#C4CAD9;" d="M0,278.26v217.036c0,9.222,7.478,16.695,16.695,16.695h478.593c9.217,0,16.695-7.473,16.695-16.695
    	V278.26H0L0,278.26z"/>
    <path style="fill:#B8BFCC;" d="M255.992,511.991h239.297c9.217,0,16.695-7.473,16.695-16.695V278.26H255.992V511.991z"/>
    <path style="fill:#7F838C;" d="M329.673,44.528c-21.036,23.596-49.863,27.936-73.681,14.469c-6.457-3.45-12.577-8.348-18.031-14.469
    	c-13.246-14.469-28.827-14.58-41.849,0c-6.12,6.901-16.695,7.457-23.596,1.336c-6.901-6.233-7.456-16.695-1.336-23.596
    	c24.376-27.38,59.435-28.827,84.811-6.678c2.449,1.892,4.674,4.229,6.901,6.678c13.246,14.469,28.827,14.58,41.849,0
    	c6.12-6.901,16.695-7.457,23.596-1.336C335.238,27.166,335.793,37.628,329.673,44.528z"/>
    <path style="fill:#626873;" d="M445.203,511.991H333.902V361.736c0-9.22,7.475-16.695,16.695-16.695h77.911
    	c9.22,0,16.695,7.475,16.695,16.695V511.991z"/>
    <path style="fill:#7F838C;" d="M150.256,445.211h-66.78c-9.217,0-16.695-7.473-16.695-16.695v-66.78
    	c0-9.222,7.478-16.695,16.695-16.695h66.78c9.217,0,16.695,7.473,16.695,16.695v66.78
    	C166.951,437.738,159.473,445.211,150.256,445.211z"/>
    <path style="fill:#57DEFF;" d="M100.171,411.821h33.39v-33.39h-33.39V411.821z"/>
    <path style="fill:#7F838C;" d="M283.817,445.211h-66.78c-9.217,0-16.695-7.473-16.695-16.695v-66.78
    	c0-9.222,7.478-16.695,16.695-16.695h66.78c9.217,0,16.695,7.473,16.695,16.695v66.78
    	C300.512,437.738,293.034,445.211,283.817,445.211z"/>
    <path style="fill:#757982;" d="M283.817,345.04h-27.825v100.171h27.825c9.217,0,16.695-7.473,16.695-16.695v-66.78
    	C300.512,352.513,293.034,345.04,283.817,345.04z"/>
    <path style="fill:#57DEFF;" d="M233.732,411.821h33.39v-33.39h-33.39V411.821z"/>
    <rect x="255.992" y="378.434" style="fill:#4EC9E6;" width="11.13" height="33.39"/>
    <path style="fill:#757982;" d="M329.673,44.528c-21.036,23.596-49.863,27.936-73.681,14.469V15.59
    	c2.449,1.892,4.674,4.229,6.901,6.678c13.246,14.469,28.827,14.58,41.849,0c6.12-6.901,16.695-7.457,23.596-1.336
    	C335.238,27.166,335.793,37.628,329.673,44.528z"/>
  </symbol>

  <symbol id="plus-icon" viewBox="0 0 470.007 470.007">
    <title>Plus icon</title>
    <g>
    	<path d="M394,154.175c-5.331-5.33-11.806-7.994-19.417-7.994H255.811V27.406c0-7.611-2.666-14.084-7.994-19.414
    		C242.488,2.666,236.02,0,228.398,0h-54.812c-7.612,0-14.084,2.663-19.414,7.993c-5.33,5.33-7.994,11.803-7.994,19.414v118.775
    		H27.407c-7.611,0-14.084,2.664-19.414,7.994S0,165.973,0,173.589v54.819c0,7.618,2.662,14.086,7.992,19.411
    		c5.33,5.332,11.803,7.994,19.414,7.994h118.771V374.59c0,7.611,2.664,14.089,7.994,19.417c5.33,5.325,11.802,7.987,19.414,7.987
    		h54.816c7.617,0,14.086-2.662,19.417-7.987c5.332-5.331,7.994-11.806,7.994-19.417V255.813h118.77
    		c7.618,0,14.089-2.662,19.417-7.994c5.329-5.325,7.994-11.793,7.994-19.411v-54.819C401.991,165.973,399.332,159.502,394,154.175z"
    		/>
    </g>
  </symbol>
  <symbol id="company-icon" viewBox="0 0 204 204">
    <title>Company navigation ment</title>
    <g>
    	<path d="M89,89h25v31h51V14h-16V0H55v14H39v106h50V89z M126,29h24v16h-24V29z M126,59h24v16h-24V59z M126,89h24v16h-24V89z M89,29   h25v16H89V29z M89,59h25v16H89V59z M77,105H53V89h24V105z M77,75H53V59h24V75z M77,45H53V29h24V45z" fill="#FFFFFF"/>
    	<polygon points="164,174 164,153 164,135 164,134 40,134 40,135 40,153 40,174 29,174 29,204 70,204 70,174 59,174 59,153    60.083,153 145,153 145,174 134,174 134,204 175,204 175,174  " fill="#FFFFFF"/>
    </g>
  </symbol>
</svg>
